<svg xmlns="http://www.w3.org/2000/svg" width="566" height="391" viewBox="0 0 566 391" fill="none">
    <g filter="url(#filter0_d_27_18)">
        <rect x="8" y="4" width="540" height="365" rx="16" fill="white" />
    </g>
    <path
        d="M142.441 228.727V141.455H148.031V228.727H142.441ZM157.27 170.261C156.997 167.511 155.827 165.375 153.759 163.852C151.691 162.33 148.884 161.568 145.338 161.568C142.929 161.568 140.895 161.909 139.236 162.591C137.577 163.25 136.304 164.17 135.418 165.352C134.554 166.534 134.122 167.875 134.122 169.375C134.077 170.625 134.338 171.716 134.906 172.648C135.497 173.58 136.304 174.386 137.327 175.068C138.35 175.727 139.531 176.307 140.872 176.807C142.213 177.284 143.645 177.693 145.168 178.034L151.441 179.534C154.486 180.216 157.281 181.125 159.827 182.261C162.372 183.398 164.577 184.795 166.441 186.455C168.304 188.114 169.747 190.068 170.77 192.318C171.816 194.568 172.35 197.148 172.372 200.057C172.35 204.33 171.259 208.034 169.1 211.17C166.963 214.284 163.872 216.705 159.827 218.432C155.804 220.136 150.952 220.989 145.27 220.989C139.634 220.989 134.725 220.125 130.543 218.398C126.384 216.67 123.134 214.114 120.793 210.727C118.475 207.318 117.259 203.102 117.145 198.08H131.429C131.588 200.42 132.259 202.375 133.441 203.943C134.645 205.489 136.247 206.659 138.247 207.455C140.27 208.227 142.554 208.614 145.1 208.614C147.6 208.614 149.77 208.25 151.611 207.523C153.475 206.795 154.918 205.784 155.941 204.489C156.963 203.193 157.475 201.705 157.475 200.023C157.475 198.455 157.009 197.136 156.077 196.068C155.168 195 153.827 194.091 152.054 193.341C150.304 192.591 148.156 191.909 145.611 191.295L138.009 189.386C132.122 187.955 127.475 185.716 124.066 182.67C120.656 179.625 118.963 175.523 118.986 170.364C118.963 166.136 120.088 162.443 122.361 159.284C124.656 156.125 127.804 153.659 131.804 151.886C135.804 150.114 140.35 149.227 145.441 149.227C150.622 149.227 155.145 150.114 159.009 151.886C162.895 153.659 165.918 156.125 168.077 159.284C170.236 162.443 171.35 166.102 171.418 170.261H157.27ZM192.591 220V209.364L217.443 186.352C219.557 184.307 221.33 182.466 222.761 180.83C224.216 179.193 225.318 177.591 226.068 176.023C226.818 174.432 227.193 172.716 227.193 170.875C227.193 168.83 226.727 167.068 225.796 165.591C224.864 164.091 223.591 162.943 221.977 162.148C220.364 161.33 218.534 160.92 216.489 160.92C214.352 160.92 212.489 161.352 210.898 162.216C209.307 163.08 208.08 164.318 207.216 165.932C206.352 167.545 205.921 169.466 205.921 171.693H191.909C191.909 167.125 192.943 163.159 195.011 159.795C197.08 156.432 199.977 153.83 203.705 151.989C207.432 150.148 211.727 149.227 216.591 149.227C221.591 149.227 225.943 150.114 229.648 151.886C233.375 153.636 236.273 156.068 238.341 159.182C240.409 162.295 241.443 165.864 241.443 169.886C241.443 172.523 240.921 175.125 239.875 177.693C238.852 180.261 237.023 183.114 234.386 186.25C231.75 189.364 228.034 193.102 223.239 197.466L213.046 207.455V207.932H242.364V220H192.591ZM272.561 149.227C276.152 149.227 279.607 149.83 282.925 151.034C286.266 152.239 289.243 154.159 291.857 156.795C294.493 159.432 296.572 162.932 298.095 167.295C299.641 171.636 300.425 176.966 300.447 183.284C300.447 189.216 299.777 194.511 298.436 199.17C297.118 203.807 295.22 207.75 292.743 211C290.266 214.25 287.277 216.727 283.777 218.432C280.277 220.114 276.368 220.955 272.05 220.955C267.391 220.955 263.277 220.057 259.709 218.261C256.141 216.443 253.266 213.977 251.084 210.864C248.925 207.727 247.618 204.205 247.163 200.295H261.72C262.288 202.841 263.482 204.818 265.3 206.227C267.118 207.614 269.368 208.307 272.05 208.307C276.595 208.307 280.05 206.33 282.413 202.375C284.777 198.398 285.97 192.955 285.993 186.045H285.516C284.47 188.091 283.061 189.852 281.288 191.33C279.516 192.784 277.482 193.909 275.186 194.705C272.913 195.5 270.493 195.898 267.925 195.898C263.811 195.898 260.141 194.932 256.913 193C253.686 191.068 251.141 188.409 249.277 185.023C247.413 181.636 246.482 177.773 246.482 173.432C246.459 168.75 247.538 164.58 249.72 160.92C251.902 157.261 254.947 154.398 258.857 152.33C262.788 150.239 267.357 149.205 272.561 149.227ZM272.663 160.818C270.368 160.818 268.322 161.364 266.527 162.455C264.754 163.545 263.345 165.011 262.3 166.852C261.277 168.693 260.777 170.75 260.8 173.023C260.8 175.318 261.3 177.386 262.3 179.227C263.322 181.045 264.709 182.5 266.459 183.591C268.232 184.659 270.254 185.193 272.527 185.193C274.232 185.193 275.811 184.875 277.266 184.239C278.72 183.602 279.982 182.727 281.05 181.614C282.141 180.477 282.993 179.17 283.607 177.693C284.22 176.216 284.527 174.648 284.527 172.989C284.504 170.784 283.982 168.761 282.959 166.92C281.936 165.08 280.527 163.602 278.732 162.489C276.936 161.375 274.913 160.818 272.663 160.818ZM310.727 220.886C308.477 220.886 306.545 220.091 304.932 218.5C303.341 216.886 302.545 214.955 302.545 212.705C302.545 210.477 303.341 208.568 304.932 206.977C306.545 205.386 308.477 204.591 310.727 204.591C312.909 204.591 314.818 205.386 316.454 206.977C318.091 208.568 318.909 210.477 318.909 212.705C318.909 214.205 318.523 215.58 317.75 216.83C317 218.057 316.011 219.045 314.784 219.795C313.557 220.523 312.204 220.886 310.727 220.886ZM348.885 149.227C352.476 149.227 355.93 149.83 359.248 151.034C362.589 152.239 365.567 154.159 368.18 156.795C370.817 159.432 372.896 162.932 374.419 167.295C375.964 171.636 376.748 176.966 376.771 183.284C376.771 189.216 376.101 194.511 374.76 199.17C373.442 203.807 371.544 207.75 369.067 211C366.589 214.25 363.601 216.727 360.101 218.432C356.601 220.114 352.692 220.955 348.373 220.955C343.714 220.955 339.601 220.057 336.033 218.261C332.464 216.443 329.589 213.977 327.408 210.864C325.248 207.727 323.942 204.205 323.487 200.295H338.044C338.612 202.841 339.805 204.818 341.623 206.227C343.442 207.614 345.692 208.307 348.373 208.307C352.919 208.307 356.373 206.33 358.737 202.375C361.101 198.398 362.294 192.955 362.317 186.045H361.839C360.794 188.091 359.385 189.852 357.612 191.33C355.839 192.784 353.805 193.909 351.51 194.705C349.237 195.5 346.817 195.898 344.248 195.898C340.135 195.898 336.464 194.932 333.237 193C330.01 191.068 327.464 188.409 325.601 185.023C323.737 181.636 322.805 177.773 322.805 173.432C322.783 168.75 323.862 164.58 326.044 160.92C328.226 157.261 331.271 154.398 335.18 152.33C339.112 150.239 343.68 149.205 348.885 149.227ZM348.987 160.818C346.692 160.818 344.646 161.364 342.851 162.455C341.078 163.545 339.669 165.011 338.623 166.852C337.601 168.693 337.101 170.75 337.123 173.023C337.123 175.318 337.623 177.386 338.623 179.227C339.646 181.045 341.033 182.5 342.783 183.591C344.555 184.659 346.578 185.193 348.851 185.193C350.555 185.193 352.135 184.875 353.589 184.239C355.044 183.602 356.305 182.727 357.373 181.614C358.464 180.477 359.317 179.17 359.93 177.693C360.544 176.216 360.851 174.648 360.851 172.989C360.828 170.784 360.305 168.761 359.283 166.92C358.26 165.08 356.851 163.602 355.055 162.489C353.26 161.375 351.237 160.818 348.987 160.818ZM408.613 221.534C402.75 221.511 397.704 220.068 393.477 217.205C389.273 214.341 386.034 210.193 383.761 204.761C381.511 199.33 380.398 192.795 380.42 185.159C380.42 177.545 381.545 171.057 383.795 165.693C386.068 160.33 389.307 156.25 393.511 153.455C397.738 150.636 402.773 149.227 408.613 149.227C414.454 149.227 419.477 150.636 423.682 153.455C427.909 156.273 431.159 160.364 433.432 165.727C435.704 171.068 436.829 177.545 436.807 185.159C436.807 192.818 435.67 199.364 433.398 204.795C431.148 210.227 427.92 214.375 423.716 217.239C419.511 220.102 414.477 221.534 408.613 221.534ZM408.613 209.295C412.613 209.295 415.807 207.284 418.193 203.261C420.579 199.239 421.761 193.205 421.738 185.159C421.738 179.864 421.193 175.455 420.102 171.932C419.034 168.409 417.511 165.761 415.534 163.989C413.579 162.216 411.273 161.33 408.613 161.33C404.636 161.33 401.454 163.318 399.068 167.295C396.682 171.273 395.477 177.227 395.454 185.159C395.454 190.523 395.988 195 397.057 198.591C398.148 202.159 399.682 204.841 401.659 206.636C403.636 208.409 405.954 209.295 408.613 209.295Z"
        fill="url(#paint0_linear_27_18)" />
    <path
        d="M103.741 280.318C102.241 280.318 100.904 280.061 99.7301 279.545C98.5634 279.03 97.6354 278.314 96.946 277.398C96.2642 276.473 95.893 275.402 95.8324 274.182H98.696C98.7566 274.932 99.0142 275.58 99.4688 276.125C99.9233 276.663 100.518 277.08 101.253 277.375C101.988 277.67 102.802 277.818 103.696 277.818C104.696 277.818 105.582 277.644 106.355 277.295C107.128 276.947 107.734 276.462 108.173 275.841C108.613 275.22 108.832 274.5 108.832 273.682C108.832 272.826 108.62 272.072 108.196 271.42C107.772 270.761 107.151 270.246 106.332 269.875C105.514 269.504 104.514 269.318 103.332 269.318H101.469V266.818H103.332C104.257 266.818 105.067 266.652 105.764 266.318C106.469 265.985 107.018 265.515 107.412 264.909C107.813 264.303 108.014 263.591 108.014 262.773C108.014 261.985 107.84 261.299 107.491 260.716C107.143 260.133 106.651 259.678 106.014 259.352C105.385 259.027 104.643 258.864 103.787 258.864C102.984 258.864 102.226 259.011 101.514 259.307C100.81 259.595 100.234 260.015 99.7869 260.568C99.34 261.114 99.0975 261.773 99.0597 262.545H96.3324C96.3778 261.326 96.7453 260.258 97.4347 259.341C98.1241 258.417 99.0256 257.697 100.139 257.182C101.26 256.667 102.491 256.409 103.832 256.409C105.272 256.409 106.507 256.701 107.537 257.284C108.567 257.86 109.359 258.621 109.912 259.568C110.465 260.515 110.741 261.538 110.741 262.636C110.741 263.947 110.397 265.064 109.707 265.989C109.026 266.913 108.098 267.553 106.923 267.909V268.091C108.393 268.333 109.541 268.958 110.366 269.966C111.192 270.966 111.605 272.205 111.605 273.682C111.605 274.947 111.26 276.083 110.571 277.091C109.889 278.091 108.957 278.879 107.776 279.455C106.594 280.03 105.249 280.318 103.741 280.318ZM123.98 280.318C123.026 280.303 122.071 280.121 121.116 279.773C120.162 279.424 119.291 278.837 118.503 278.011C117.715 277.178 117.082 276.053 116.605 274.636C116.128 273.212 115.889 271.424 115.889 269.273C115.889 267.212 116.082 265.386 116.469 263.795C116.855 262.197 117.416 260.852 118.151 259.761C118.885 258.663 119.772 257.83 120.81 257.261C121.855 256.693 123.033 256.409 124.344 256.409C125.647 256.409 126.806 256.67 127.821 257.193C128.844 257.708 129.677 258.428 130.321 259.352C130.965 260.277 131.382 261.341 131.571 262.545H128.798C128.541 261.5 128.041 260.633 127.298 259.943C126.556 259.254 125.571 258.909 124.344 258.909C122.541 258.909 121.12 259.693 120.082 261.261C119.052 262.83 118.533 265.03 118.526 267.864H118.707C119.132 267.22 119.635 266.67 120.219 266.216C120.81 265.754 121.461 265.398 122.173 265.148C122.885 264.898 123.639 264.773 124.435 264.773C125.768 264.773 126.988 265.106 128.094 265.773C129.2 266.432 130.086 267.345 130.753 268.511C131.42 269.67 131.753 271 131.753 272.5C131.753 273.939 131.431 275.258 130.787 276.455C130.143 277.644 129.238 278.591 128.071 279.295C126.912 279.992 125.548 280.333 123.98 280.318ZM123.98 277.818C124.935 277.818 125.791 277.58 126.548 277.102C127.313 276.625 127.916 275.985 128.355 275.182C128.802 274.379 129.026 273.485 129.026 272.5C129.026 271.538 128.81 270.663 128.378 269.875C127.954 269.08 127.366 268.447 126.616 267.977C125.874 267.508 125.026 267.273 124.071 267.273C123.351 267.273 122.681 267.417 122.06 267.705C121.438 267.985 120.893 268.371 120.423 268.864C119.961 269.356 119.598 269.92 119.332 270.557C119.067 271.186 118.935 271.848 118.935 272.545C118.935 273.47 119.151 274.333 119.582 275.136C120.022 275.939 120.62 276.587 121.378 277.08C122.143 277.572 123.01 277.818 123.98 277.818ZM143.494 280.318C142.161 280.318 140.96 280.053 139.892 279.523C138.824 278.992 137.968 278.265 137.324 277.341C136.68 276.417 136.328 275.364 136.267 274.182H138.994C139.1 275.235 139.578 276.106 140.426 276.795C141.282 277.477 142.305 277.818 143.494 277.818C144.449 277.818 145.297 277.595 146.04 277.148C146.79 276.701 147.377 276.087 147.801 275.307C148.233 274.519 148.449 273.629 148.449 272.636C148.449 271.621 148.225 270.716 147.778 269.92C147.339 269.117 146.733 268.485 145.96 268.023C145.188 267.561 144.305 267.326 143.312 267.318C142.6 267.311 141.869 267.42 141.119 267.648C140.369 267.867 139.752 268.152 139.267 268.5L136.631 268.182L138.04 256.727H150.131V259.227H140.403L139.585 266.091H139.722C140.199 265.712 140.797 265.398 141.517 265.148C142.237 264.898 142.987 264.773 143.767 264.773C145.191 264.773 146.46 265.114 147.574 265.795C148.695 266.47 149.574 267.394 150.21 268.568C150.854 269.742 151.176 271.083 151.176 272.591C151.176 274.076 150.843 275.402 150.176 276.568C149.517 277.727 148.608 278.644 147.449 279.318C146.29 279.985 144.972 280.318 143.494 280.318ZM171.327 280.364C169.872 280.364 168.588 279.996 167.474 279.261C166.361 278.519 165.49 277.473 164.861 276.125C164.232 274.769 163.918 273.167 163.918 271.318C163.918 269.485 164.232 267.894 164.861 266.545C165.49 265.197 166.365 264.155 167.486 263.42C168.607 262.686 169.902 262.318 171.372 262.318C172.509 262.318 173.406 262.508 174.065 262.886C174.732 263.258 175.24 263.682 175.588 264.159C175.944 264.629 176.221 265.015 176.418 265.318H176.645V256.727H179.327V280H176.736V277.318H176.418C176.221 277.636 175.94 278.038 175.577 278.523C175.213 279 174.694 279.428 174.02 279.807C173.346 280.178 172.448 280.364 171.327 280.364ZM171.69 277.955C172.766 277.955 173.675 277.674 174.418 277.114C175.16 276.545 175.724 275.761 176.111 274.761C176.497 273.754 176.69 272.591 176.69 271.273C176.69 269.97 176.501 268.83 176.122 267.852C175.743 266.867 175.183 266.102 174.44 265.557C173.698 265.004 172.781 264.727 171.69 264.727C170.554 264.727 169.607 265.019 168.849 265.602C168.099 266.178 167.535 266.962 167.156 267.955C166.785 268.939 166.599 270.045 166.599 271.273C166.599 272.515 166.789 273.644 167.168 274.659C167.554 275.667 168.122 276.47 168.872 277.068C169.63 277.659 170.569 277.955 171.69 277.955ZM189.747 280.409C188.641 280.409 187.637 280.201 186.736 279.784C185.834 279.36 185.118 278.75 184.588 277.955C184.058 277.152 183.793 276.182 183.793 275.045C183.793 274.045 183.99 273.235 184.384 272.614C184.777 271.985 185.304 271.492 185.963 271.136C186.622 270.78 187.349 270.515 188.145 270.341C188.948 270.159 189.755 270.015 190.565 269.909C191.626 269.773 192.486 269.67 193.145 269.602C193.812 269.527 194.296 269.402 194.599 269.227C194.91 269.053 195.065 268.75 195.065 268.318V268.227C195.065 267.106 194.759 266.235 194.145 265.614C193.539 264.992 192.618 264.682 191.384 264.682C190.103 264.682 189.099 264.962 188.372 265.523C187.645 266.083 187.134 266.682 186.838 267.318L184.293 266.409C184.747 265.348 185.353 264.523 186.111 263.932C186.876 263.333 187.709 262.917 188.611 262.682C189.52 262.439 190.414 262.318 191.293 262.318C191.853 262.318 192.497 262.386 193.224 262.523C193.959 262.652 194.668 262.92 195.349 263.33C196.039 263.739 196.611 264.356 197.065 265.182C197.52 266.008 197.747 267.114 197.747 268.5V280H195.065V277.636H194.929C194.747 278.015 194.444 278.42 194.02 278.852C193.596 279.284 193.031 279.652 192.327 279.955C191.622 280.258 190.762 280.409 189.747 280.409ZM190.156 278C191.217 278 192.111 277.792 192.838 277.375C193.573 276.958 194.126 276.42 194.497 275.761C194.876 275.102 195.065 274.409 195.065 273.682V271.227C194.952 271.364 194.702 271.489 194.315 271.602C193.937 271.708 193.497 271.803 192.997 271.886C192.505 271.962 192.024 272.03 191.554 272.091C191.092 272.144 190.717 272.189 190.429 272.227C189.732 272.318 189.08 272.466 188.474 272.67C187.876 272.867 187.391 273.167 187.02 273.568C186.656 273.962 186.474 274.5 186.474 275.182C186.474 276.114 186.819 276.818 187.509 277.295C188.205 277.765 189.088 278 190.156 278ZM203.744 286.545C203.29 286.545 202.884 286.508 202.528 286.432C202.172 286.364 201.926 286.295 201.79 286.227L202.472 283.864C203.123 284.03 203.699 284.091 204.199 284.045C204.699 284 205.142 283.777 205.528 283.375C205.922 282.981 206.282 282.341 206.608 281.455L207.108 280.091L200.653 262.545H203.562L208.381 276.455H208.562L213.381 262.545H216.29L208.881 282.545C208.547 283.447 208.134 284.193 207.642 284.784C207.15 285.383 206.578 285.826 205.926 286.114C205.282 286.402 204.555 286.545 203.744 286.545ZM232.193 266.455L229.784 267.136C229.633 266.735 229.409 266.345 229.114 265.966C228.826 265.58 228.432 265.261 227.932 265.011C227.432 264.761 226.792 264.636 226.011 264.636C224.943 264.636 224.053 264.883 223.341 265.375C222.636 265.86 222.284 266.477 222.284 267.227C222.284 267.894 222.527 268.42 223.011 268.807C223.496 269.193 224.254 269.515 225.284 269.773L227.875 270.409C229.436 270.788 230.598 271.367 231.364 272.148C232.129 272.92 232.511 273.917 232.511 275.136C232.511 276.136 232.223 277.03 231.648 277.818C231.08 278.606 230.284 279.227 229.261 279.682C228.239 280.136 227.049 280.364 225.693 280.364C223.913 280.364 222.439 279.977 221.273 279.205C220.106 278.432 219.367 277.303 219.057 275.818L221.602 275.182C221.845 276.121 222.303 276.826 222.977 277.295C223.659 277.765 224.549 278 225.648 278C226.898 278 227.89 277.735 228.625 277.205C229.367 276.667 229.739 276.023 229.739 275.273C229.739 274.667 229.527 274.159 229.102 273.75C228.678 273.333 228.027 273.023 227.148 272.818L224.239 272.136C222.64 271.758 221.466 271.17 220.716 270.375C219.973 269.572 219.602 268.568 219.602 267.364C219.602 266.379 219.879 265.508 220.432 264.75C220.992 263.992 221.754 263.398 222.716 262.966C223.686 262.534 224.784 262.318 226.011 262.318C227.739 262.318 229.095 262.697 230.08 263.455C231.072 264.212 231.777 265.212 232.193 266.455ZM253.321 262.545V264.818H243.912V262.545H253.321ZM246.73 280V260.136C246.73 259.136 246.965 258.303 247.435 257.636C247.904 256.97 248.514 256.47 249.264 256.136C250.014 255.803 250.806 255.636 251.639 255.636C252.298 255.636 252.836 255.689 253.253 255.795C253.67 255.902 253.98 256 254.185 256.091L253.412 258.409C253.276 258.364 253.086 258.307 252.844 258.239C252.609 258.17 252.298 258.136 251.912 258.136C251.026 258.136 250.385 258.36 249.991 258.807C249.605 259.254 249.412 259.909 249.412 260.773V280H246.73ZM257.08 280V262.545H259.67V265.182H259.852C260.17 264.318 260.746 263.617 261.58 263.08C262.413 262.542 263.352 262.273 264.398 262.273C264.595 262.273 264.841 262.277 265.136 262.284C265.432 262.292 265.655 262.303 265.807 262.318V265.045C265.716 265.023 265.508 264.989 265.182 264.943C264.864 264.89 264.527 264.864 264.17 264.864C263.322 264.864 262.564 265.042 261.898 265.398C261.239 265.746 260.716 266.231 260.33 266.852C259.951 267.466 259.761 268.167 259.761 268.955V280H257.08ZM275.545 280.364C273.97 280.364 272.587 279.989 271.398 279.239C270.216 278.489 269.292 277.439 268.625 276.091C267.966 274.742 267.636 273.167 267.636 271.364C267.636 269.545 267.966 267.958 268.625 266.602C269.292 265.246 270.216 264.193 271.398 263.443C272.587 262.693 273.97 262.318 275.545 262.318C277.121 262.318 278.5 262.693 279.682 263.443C280.871 264.193 281.795 265.246 282.455 266.602C283.121 267.958 283.455 269.545 283.455 271.364C283.455 273.167 283.121 274.742 282.455 276.091C281.795 277.439 280.871 278.489 279.682 279.239C278.5 279.989 277.121 280.364 275.545 280.364ZM275.545 277.955C276.742 277.955 277.727 277.648 278.5 277.034C279.273 276.42 279.845 275.614 280.216 274.614C280.587 273.614 280.773 272.53 280.773 271.364C280.773 270.197 280.587 269.11 280.216 268.102C279.845 267.095 279.273 266.28 278.5 265.659C277.727 265.038 276.742 264.727 275.545 264.727C274.348 264.727 273.364 265.038 272.591 265.659C271.818 266.28 271.246 267.095 270.875 268.102C270.504 269.11 270.318 270.197 270.318 271.364C270.318 272.53 270.504 273.614 270.875 274.614C271.246 275.614 271.818 276.42 272.591 277.034C273.364 277.648 274.348 277.955 275.545 277.955ZM287.548 280V262.545H290.139V265.273H290.366C290.73 264.341 291.317 263.617 292.128 263.102C292.938 262.58 293.912 262.318 295.048 262.318C296.2 262.318 297.158 262.58 297.923 263.102C298.696 263.617 299.298 264.341 299.73 265.273H299.912C300.359 264.371 301.029 263.655 301.923 263.125C302.817 262.587 303.889 262.318 305.139 262.318C306.7 262.318 307.976 262.807 308.969 263.784C309.961 264.754 310.457 266.265 310.457 268.318V280H307.776V268.318C307.776 267.03 307.423 266.11 306.719 265.557C306.014 265.004 305.185 264.727 304.23 264.727C303.003 264.727 302.052 265.098 301.378 265.841C300.704 266.576 300.366 267.508 300.366 268.636V280H297.639V268.045C297.639 267.053 297.317 266.254 296.673 265.648C296.029 265.034 295.2 264.727 294.185 264.727C293.488 264.727 292.836 264.913 292.23 265.284C291.632 265.655 291.147 266.17 290.776 266.83C290.412 267.481 290.23 268.235 290.23 269.091V280H287.548ZM324.361 286.545V262.545H326.952V265.318H327.27C327.467 265.015 327.74 264.629 328.088 264.159C328.444 263.682 328.952 263.258 329.611 262.886C330.277 262.508 331.179 262.318 332.315 262.318C333.785 262.318 335.08 262.686 336.202 263.42C337.323 264.155 338.198 265.197 338.827 266.545C339.455 267.894 339.77 269.485 339.77 271.318C339.77 273.167 339.455 274.769 338.827 276.125C338.198 277.473 337.327 278.519 336.213 279.261C335.099 279.996 333.815 280.364 332.361 280.364C331.24 280.364 330.342 280.178 329.668 279.807C328.993 279.428 328.474 279 328.111 278.523C327.747 278.038 327.467 277.636 327.27 277.318H327.043V286.545H324.361ZM326.997 271.273C326.997 272.591 327.19 273.754 327.577 274.761C327.963 275.761 328.527 276.545 329.27 277.114C330.012 277.674 330.921 277.955 331.997 277.955C333.118 277.955 334.054 277.659 334.804 277.068C335.562 276.47 336.13 275.667 336.509 274.659C336.895 273.644 337.088 272.515 337.088 271.273C337.088 270.045 336.899 268.939 336.52 267.955C336.149 266.962 335.584 266.178 334.827 265.602C334.077 265.019 333.134 264.727 331.997 264.727C330.906 264.727 329.99 265.004 329.247 265.557C328.505 266.102 327.944 266.867 327.565 267.852C327.187 268.83 326.997 269.97 326.997 271.273ZM354.861 272.864V262.545H357.543V280H354.861V277.045H354.679C354.27 277.932 353.634 278.686 352.77 279.307C351.906 279.92 350.815 280.227 349.497 280.227C348.406 280.227 347.437 279.989 346.588 279.511C345.74 279.027 345.073 278.299 344.588 277.33C344.103 276.352 343.861 275.121 343.861 273.636V262.545H346.543V273.455C346.543 274.727 346.899 275.742 347.611 276.5C348.33 277.258 349.247 277.636 350.361 277.636C351.027 277.636 351.705 277.466 352.395 277.125C353.092 276.784 353.675 276.261 354.145 275.557C354.622 274.852 354.861 273.955 354.861 272.864ZM362.455 280V262.545H365.045V265.182H365.227C365.545 264.318 366.121 263.617 366.955 263.08C367.788 262.542 368.727 262.273 369.773 262.273C369.97 262.273 370.216 262.277 370.511 262.284C370.807 262.292 371.03 262.303 371.182 262.318V265.045C371.091 265.023 370.883 264.989 370.557 264.943C370.239 264.89 369.902 264.864 369.545 264.864C368.697 264.864 367.939 265.042 367.273 265.398C366.614 265.746 366.091 266.231 365.705 266.852C365.326 267.466 365.136 268.167 365.136 268.955V280H362.455ZM380.92 280.364C379.284 280.364 377.875 279.977 376.693 279.205C375.511 278.432 374.602 277.367 373.966 276.011C373.33 274.655 373.011 273.106 373.011 271.364C373.011 269.591 373.337 268.027 373.989 266.67C374.648 265.307 375.564 264.242 376.739 263.477C377.92 262.705 379.299 262.318 380.875 262.318C382.102 262.318 383.208 262.545 384.193 263C385.178 263.455 385.985 264.091 386.614 264.909C387.242 265.727 387.633 266.682 387.784 267.773H385.102C384.898 266.977 384.443 266.273 383.739 265.659C383.042 265.038 382.102 264.727 380.92 264.727C379.875 264.727 378.958 265 378.17 265.545C377.39 266.083 376.78 266.845 376.341 267.83C375.909 268.807 375.693 269.955 375.693 271.273C375.693 272.621 375.905 273.795 376.33 274.795C376.761 275.795 377.367 276.572 378.148 277.125C378.936 277.678 379.86 277.955 380.92 277.955C381.617 277.955 382.25 277.833 382.818 277.591C383.386 277.348 383.867 277 384.261 276.545C384.655 276.091 384.936 275.545 385.102 274.909H387.784C387.633 275.939 387.258 276.867 386.659 277.693C386.068 278.511 385.284 279.163 384.307 279.648C383.337 280.125 382.208 280.364 380.92 280.364ZM394.386 269.5V280H391.705V256.727H394.386V265.273H394.614C395.023 264.371 395.636 263.655 396.455 263.125C397.28 262.587 398.379 262.318 399.75 262.318C400.939 262.318 401.981 262.557 402.875 263.034C403.769 263.504 404.462 264.227 404.955 265.205C405.455 266.174 405.705 267.409 405.705 268.909V280H403.023V269.091C403.023 267.705 402.663 266.633 401.943 265.875C401.231 265.11 400.242 264.727 398.977 264.727C398.098 264.727 397.311 264.913 396.614 265.284C395.924 265.655 395.379 266.197 394.977 266.909C394.583 267.621 394.386 268.485 394.386 269.5ZM415.747 280.409C414.641 280.409 413.637 280.201 412.736 279.784C411.834 279.36 411.118 278.75 410.588 277.955C410.058 277.152 409.793 276.182 409.793 275.045C409.793 274.045 409.99 273.235 410.384 272.614C410.777 271.985 411.304 271.492 411.963 271.136C412.622 270.78 413.349 270.515 414.145 270.341C414.948 270.159 415.755 270.015 416.565 269.909C417.626 269.773 418.486 269.67 419.145 269.602C419.812 269.527 420.296 269.402 420.599 269.227C420.91 269.053 421.065 268.75 421.065 268.318V268.227C421.065 267.106 420.759 266.235 420.145 265.614C419.539 264.992 418.618 264.682 417.384 264.682C416.103 264.682 415.099 264.962 414.372 265.523C413.645 266.083 413.134 266.682 412.838 267.318L410.293 266.409C410.747 265.348 411.353 264.523 412.111 263.932C412.876 263.333 413.709 262.917 414.611 262.682C415.52 262.439 416.414 262.318 417.293 262.318C417.853 262.318 418.497 262.386 419.224 262.523C419.959 262.652 420.668 262.92 421.349 263.33C422.039 263.739 422.611 264.356 423.065 265.182C423.52 266.008 423.747 267.114 423.747 268.5V280H421.065V277.636H420.929C420.747 278.015 420.444 278.42 420.02 278.852C419.596 279.284 419.031 279.652 418.327 279.955C417.622 280.258 416.762 280.409 415.747 280.409ZM416.156 278C417.217 278 418.111 277.792 418.838 277.375C419.573 276.958 420.126 276.42 420.497 275.761C420.876 275.102 421.065 274.409 421.065 273.682V271.227C420.952 271.364 420.702 271.489 420.315 271.602C419.937 271.708 419.497 271.803 418.997 271.886C418.505 271.962 418.024 272.03 417.554 272.091C417.092 272.144 416.717 272.189 416.429 272.227C415.732 272.318 415.08 272.466 414.474 272.67C413.876 272.867 413.391 273.167 413.02 273.568C412.656 273.962 412.474 274.5 412.474 275.182C412.474 276.114 412.819 276.818 413.509 277.295C414.205 277.765 415.088 278 416.156 278ZM441.006 266.455L438.597 267.136C438.445 266.735 438.222 266.345 437.926 265.966C437.638 265.58 437.244 265.261 436.744 265.011C436.244 264.761 435.604 264.636 434.824 264.636C433.756 264.636 432.866 264.883 432.153 265.375C431.449 265.86 431.097 266.477 431.097 267.227C431.097 267.894 431.339 268.42 431.824 268.807C432.309 269.193 433.066 269.515 434.097 269.773L436.688 270.409C438.248 270.788 439.411 271.367 440.176 272.148C440.941 272.92 441.324 273.917 441.324 275.136C441.324 276.136 441.036 277.03 440.46 277.818C439.892 278.606 439.097 279.227 438.074 279.682C437.051 280.136 435.862 280.364 434.506 280.364C432.725 280.364 431.252 279.977 430.085 279.205C428.919 278.432 428.18 277.303 427.869 275.818L430.415 275.182C430.657 276.121 431.116 276.826 431.79 277.295C432.472 277.765 433.362 278 434.46 278C435.71 278 436.703 277.735 437.438 277.205C438.18 276.667 438.551 276.023 438.551 275.273C438.551 274.667 438.339 274.159 437.915 273.75C437.491 273.333 436.839 273.023 435.96 272.818L433.051 272.136C431.453 271.758 430.278 271.17 429.528 270.375C428.786 269.572 428.415 268.568 428.415 267.364C428.415 266.379 428.691 265.508 429.244 264.75C429.805 263.992 430.566 263.398 431.528 262.966C432.498 262.534 433.597 262.318 434.824 262.318C436.551 262.318 437.907 262.697 438.892 263.455C439.884 264.212 440.589 265.212 441.006 266.455ZM452.679 280.364C450.997 280.364 449.546 279.992 448.327 279.25C447.115 278.5 446.179 277.455 445.52 276.114C444.868 274.765 444.543 273.197 444.543 271.409C444.543 269.621 444.868 268.045 445.52 266.682C446.179 265.311 447.096 264.242 448.27 263.477C449.452 262.705 450.83 262.318 452.406 262.318C453.315 262.318 454.213 262.47 455.099 262.773C455.986 263.076 456.793 263.568 457.52 264.25C458.247 264.924 458.827 265.818 459.259 266.932C459.69 268.045 459.906 269.417 459.906 271.045V272.182H446.452V269.864H457.179C457.179 268.879 456.982 268 456.588 267.227C456.202 266.455 455.649 265.845 454.929 265.398C454.217 264.951 453.376 264.727 452.406 264.727C451.338 264.727 450.414 264.992 449.634 265.523C448.861 266.045 448.266 266.727 447.849 267.568C447.433 268.409 447.224 269.311 447.224 270.273V271.818C447.224 273.136 447.452 274.254 447.906 275.17C448.368 276.08 449.009 276.773 449.827 277.25C450.645 277.72 451.596 277.955 452.679 277.955C453.384 277.955 454.02 277.856 454.588 277.659C455.164 277.455 455.66 277.152 456.077 276.75C456.493 276.341 456.815 275.833 457.043 275.227L459.634 275.955C459.361 276.833 458.902 277.606 458.259 278.273C457.615 278.932 456.819 279.447 455.872 279.818C454.925 280.182 453.861 280.364 452.679 280.364ZM164.328 303.364C164.328 300.545 164.703 297.951 165.453 295.58C166.211 293.208 167.366 291.011 168.919 288.989H173.544C172.953 289.739 172.404 290.655 171.896 291.739C171.389 292.814 170.946 293.996 170.567 295.284C170.188 296.572 169.893 297.905 169.68 299.284C169.468 300.655 169.362 302.015 169.362 303.364C169.362 305.159 169.544 306.973 169.908 308.807C170.279 310.633 170.779 312.33 171.408 313.898C172.044 315.466 172.756 316.75 173.544 317.75H168.919C167.366 315.727 166.211 313.53 165.453 311.159C164.703 308.788 164.328 306.189 164.328 303.364ZM189.07 298.42C188.979 297.504 188.589 296.792 187.899 296.284C187.21 295.777 186.274 295.523 185.092 295.523C184.289 295.523 183.611 295.636 183.058 295.864C182.505 296.083 182.081 296.39 181.786 296.784C181.498 297.178 181.354 297.625 181.354 298.125C181.339 298.542 181.426 298.905 181.615 299.216C181.812 299.527 182.081 299.795 182.422 300.023C182.763 300.242 183.157 300.436 183.604 300.602C184.051 300.761 184.528 300.898 185.036 301.011L187.126 301.511C188.142 301.739 189.073 302.042 189.922 302.42C190.77 302.799 191.505 303.265 192.126 303.818C192.748 304.371 193.229 305.023 193.57 305.773C193.918 306.523 194.096 307.383 194.104 308.352C194.096 309.777 193.732 311.011 193.013 312.057C192.301 313.095 191.27 313.902 189.922 314.477C188.581 315.045 186.964 315.33 185.07 315.33C183.191 315.33 181.554 315.042 180.161 314.466C178.774 313.89 177.691 313.038 176.911 311.909C176.138 310.773 175.732 309.367 175.695 307.693H180.456C180.509 308.473 180.732 309.125 181.126 309.648C181.528 310.163 182.062 310.553 182.729 310.818C183.403 311.076 184.164 311.205 185.013 311.205C185.846 311.205 186.57 311.083 187.183 310.841C187.804 310.598 188.286 310.261 188.626 309.83C188.967 309.398 189.138 308.902 189.138 308.341C189.138 307.818 188.982 307.379 188.672 307.023C188.369 306.667 187.922 306.364 187.331 306.114C186.748 305.864 186.032 305.636 185.183 305.432L182.649 304.795C180.687 304.318 179.138 303.572 178.001 302.557C176.865 301.542 176.301 300.174 176.308 298.455C176.301 297.045 176.676 295.814 177.433 294.761C178.198 293.708 179.248 292.886 180.581 292.295C181.914 291.705 183.429 291.409 185.126 291.409C186.854 291.409 188.361 291.705 189.649 292.295C190.945 292.886 191.952 293.708 192.672 294.761C193.392 295.814 193.763 297.034 193.786 298.42H189.07ZM202.3 315.33C201.186 315.33 200.194 315.136 199.322 314.75C198.451 314.356 197.762 313.777 197.254 313.011C196.754 312.239 196.504 311.277 196.504 310.125C196.504 309.155 196.682 308.341 197.038 307.682C197.394 307.023 197.879 306.492 198.493 306.091C199.107 305.689 199.804 305.386 200.584 305.182C201.372 304.977 202.197 304.833 203.061 304.75C204.076 304.644 204.894 304.545 205.516 304.455C206.137 304.356 206.588 304.212 206.868 304.023C207.148 303.833 207.288 303.553 207.288 303.182V303.114C207.288 302.394 207.061 301.837 206.607 301.443C206.16 301.049 205.523 300.852 204.697 300.852C203.826 300.852 203.133 301.045 202.618 301.432C202.103 301.811 201.762 302.288 201.595 302.864L197.118 302.5C197.345 301.439 197.792 300.523 198.459 299.75C199.125 298.97 199.985 298.371 201.038 297.955C202.099 297.53 203.326 297.318 204.72 297.318C205.69 297.318 206.618 297.432 207.504 297.659C208.398 297.886 209.19 298.239 209.879 298.716C210.576 299.193 211.125 299.807 211.527 300.557C211.929 301.299 212.129 302.189 212.129 303.227V315H207.538V312.58H207.402C207.122 313.125 206.747 313.606 206.277 314.023C205.807 314.432 205.243 314.754 204.584 314.989C203.925 315.216 203.163 315.33 202.3 315.33ZM203.686 311.989C204.398 311.989 205.027 311.848 205.572 311.568C206.118 311.28 206.546 310.894 206.857 310.409C207.167 309.924 207.322 309.375 207.322 308.761V306.909C207.171 307.008 206.963 307.098 206.697 307.182C206.44 307.258 206.148 307.33 205.822 307.398C205.497 307.458 205.171 307.515 204.845 307.568C204.519 307.614 204.224 307.655 203.959 307.693C203.391 307.777 202.894 307.909 202.47 308.091C202.046 308.273 201.716 308.519 201.482 308.83C201.247 309.133 201.129 309.511 201.129 309.966C201.129 310.625 201.368 311.129 201.845 311.477C202.33 311.818 202.944 311.989 203.686 311.989ZM231.533 297.545L225.43 315H219.976L213.874 297.545H218.987L222.612 310.034H222.794L226.408 297.545H231.533ZM234.01 315V297.545H238.851V315H234.01ZM236.442 295.295C235.722 295.295 235.105 295.057 234.589 294.58C234.082 294.095 233.828 293.515 233.828 292.841C233.828 292.174 234.082 291.602 234.589 291.125C235.105 290.64 235.722 290.398 236.442 290.398C237.161 290.398 237.775 290.64 238.283 291.125C238.798 291.602 239.055 292.174 239.055 292.841C239.055 293.515 238.798 294.095 238.283 294.58C237.775 295.057 237.161 295.295 236.442 295.295ZM247.57 304.909V315H242.729V297.545H247.342V300.625H247.547C247.933 299.61 248.581 298.807 249.49 298.216C250.399 297.617 251.501 297.318 252.797 297.318C254.009 297.318 255.066 297.583 255.967 298.114C256.869 298.644 257.57 299.402 258.07 300.386C258.57 301.364 258.82 302.53 258.82 303.886V315H253.979V304.75C253.986 303.682 253.714 302.848 253.161 302.25C252.607 301.644 251.846 301.341 250.876 301.341C250.225 301.341 249.649 301.481 249.149 301.761C248.657 302.042 248.27 302.451 247.99 302.989C247.717 303.519 247.577 304.159 247.57 304.909ZM270.499 321.909C268.93 321.909 267.586 321.693 266.464 321.261C265.351 320.837 264.464 320.258 263.805 319.523C263.146 318.788 262.718 317.962 262.521 317.045L266.999 316.443C267.135 316.792 267.351 317.117 267.646 317.42C267.942 317.723 268.332 317.966 268.817 318.148C269.309 318.337 269.908 318.432 270.612 318.432C271.665 318.432 272.533 318.174 273.214 317.659C273.904 317.152 274.249 316.299 274.249 315.102V311.909H274.044C273.832 312.394 273.514 312.852 273.089 313.284C272.665 313.716 272.12 314.068 271.453 314.341C270.786 314.614 269.991 314.75 269.067 314.75C267.756 314.75 266.563 314.447 265.487 313.841C264.419 313.227 263.567 312.292 262.93 311.034C262.302 309.769 261.987 308.17 261.987 306.239C261.987 304.261 262.309 302.61 262.953 301.284C263.597 299.958 264.453 298.966 265.521 298.307C266.597 297.648 267.775 297.318 269.055 297.318C270.033 297.318 270.851 297.485 271.51 297.818C272.169 298.144 272.699 298.553 273.101 299.045C273.51 299.53 273.824 300.008 274.044 300.477H274.226V297.545H279.033V315.17C279.033 316.655 278.669 317.898 277.942 318.898C277.214 319.898 276.207 320.648 274.919 321.148C273.639 321.655 272.165 321.909 270.499 321.909ZM270.601 311.114C271.381 311.114 272.04 310.92 272.578 310.534C273.124 310.14 273.54 309.58 273.828 308.852C274.124 308.117 274.271 307.239 274.271 306.216C274.271 305.193 274.127 304.307 273.839 303.557C273.552 302.799 273.135 302.212 272.589 301.795C272.044 301.379 271.381 301.17 270.601 301.17C269.805 301.17 269.135 301.386 268.589 301.818C268.044 302.242 267.631 302.833 267.351 303.591C267.071 304.348 266.93 305.223 266.93 306.216C266.93 307.223 267.071 308.095 267.351 308.83C267.639 309.557 268.052 310.121 268.589 310.523C269.135 310.917 269.805 311.114 270.601 311.114ZM298.064 317.909V288.818H299.928V317.909H298.064ZM303.007 298.42C302.916 297.504 302.526 296.792 301.837 296.284C301.147 295.777 300.212 295.523 299.03 295.523C298.227 295.523 297.549 295.636 296.996 295.864C296.443 296.083 296.018 296.39 295.723 296.784C295.435 297.178 295.291 297.625 295.291 298.125C295.276 298.542 295.363 298.905 295.553 299.216C295.75 299.527 296.018 299.795 296.359 300.023C296.7 300.242 297.094 300.436 297.541 300.602C297.988 300.761 298.465 300.898 298.973 301.011L301.064 301.511C302.079 301.739 303.011 302.042 303.859 302.42C304.708 302.799 305.443 303.265 306.064 303.818C306.685 304.371 307.166 305.023 307.507 305.773C307.856 306.523 308.034 307.383 308.041 308.352C308.034 309.777 307.67 311.011 306.95 312.057C306.238 313.095 305.208 313.902 303.859 314.477C302.518 315.045 300.901 315.33 299.007 315.33C297.128 315.33 295.492 315.042 294.098 314.466C292.712 313.89 291.628 313.038 290.848 311.909C290.075 310.773 289.67 309.367 289.632 307.693H294.393C294.446 308.473 294.67 309.125 295.064 309.648C295.465 310.163 296 310.553 296.666 310.818C297.34 311.076 298.102 311.205 298.95 311.205C299.784 311.205 300.507 311.083 301.121 310.841C301.742 310.598 302.223 310.261 302.564 309.83C302.905 309.398 303.075 308.902 303.075 308.341C303.075 307.818 302.92 307.379 302.609 307.023C302.306 306.667 301.859 306.364 301.268 306.114C300.685 305.864 299.969 305.636 299.121 305.432L296.587 304.795C294.625 304.318 293.075 303.572 291.939 302.557C290.803 301.542 290.238 300.174 290.246 298.455C290.238 297.045 290.613 295.814 291.371 294.761C292.136 293.708 293.185 292.886 294.518 292.295C295.852 291.705 297.367 291.409 299.064 291.409C300.791 291.409 302.299 291.705 303.587 292.295C304.882 292.886 305.89 293.708 306.609 294.761C307.329 295.814 307.7 297.034 307.723 298.42H303.007ZM319.714 315.318C318.108 315.318 316.677 315.023 315.419 314.432C314.169 313.841 313.177 313.027 312.442 311.989C311.707 310.951 311.324 309.761 311.294 308.42H316.067C316.12 309.322 316.499 310.053 317.203 310.614C317.908 311.174 318.745 311.455 319.714 311.455C320.487 311.455 321.169 311.284 321.76 310.943C322.358 310.595 322.824 310.114 323.158 309.5C323.499 308.879 323.669 308.167 323.669 307.364C323.669 306.545 323.495 305.826 323.146 305.205C322.805 304.583 322.332 304.098 321.726 303.75C321.12 303.402 320.427 303.223 319.646 303.216C318.964 303.216 318.302 303.356 317.658 303.636C317.021 303.917 316.525 304.299 316.169 304.784L311.794 304L312.896 291.727H327.124V295.75H316.953L316.351 301.58H316.487C316.896 301.004 317.514 300.527 318.339 300.148C319.165 299.769 320.089 299.58 321.112 299.58C322.514 299.58 323.764 299.909 324.862 300.568C325.961 301.227 326.828 302.133 327.464 303.284C328.101 304.428 328.415 305.746 328.408 307.239C328.415 308.807 328.052 310.201 327.317 311.42C326.589 312.633 325.571 313.587 324.26 314.284C322.957 314.973 321.442 315.318 319.714 315.318ZM333.964 315.295C333.214 315.295 332.571 315.03 332.033 314.5C331.502 313.962 331.237 313.318 331.237 312.568C331.237 311.826 331.502 311.189 332.033 310.659C332.571 310.129 333.214 309.864 333.964 309.864C334.692 309.864 335.328 310.129 335.874 310.659C336.419 311.189 336.692 311.826 336.692 312.568C336.692 313.068 336.563 313.527 336.305 313.943C336.055 314.352 335.726 314.682 335.317 314.932C334.908 315.174 334.457 315.295 333.964 315.295ZM348.604 291.409C349.801 291.409 350.952 291.61 352.058 292.011C353.172 292.413 354.164 293.053 355.036 293.932C355.914 294.811 356.607 295.977 357.115 297.432C357.63 298.879 357.892 300.655 357.899 302.761C357.899 304.739 357.676 306.504 357.229 308.057C356.789 309.602 356.157 310.917 355.331 312C354.505 313.083 353.509 313.909 352.342 314.477C351.176 315.038 349.873 315.318 348.433 315.318C346.88 315.318 345.509 315.019 344.32 314.42C343.13 313.814 342.172 312.992 341.445 311.955C340.725 310.909 340.289 309.735 340.138 308.432H344.99C345.179 309.28 345.577 309.939 346.183 310.409C346.789 310.871 347.539 311.102 348.433 311.102C349.948 311.102 351.1 310.443 351.888 309.125C352.676 307.799 353.073 305.985 353.081 303.682H352.922C352.573 304.364 352.104 304.951 351.513 305.443C350.922 305.928 350.244 306.303 349.479 306.568C348.721 306.833 347.914 306.966 347.058 306.966C345.687 306.966 344.464 306.644 343.388 306C342.312 305.356 341.464 304.47 340.842 303.341C340.221 302.212 339.911 300.924 339.911 299.477C339.903 297.917 340.263 296.527 340.99 295.307C341.717 294.087 342.732 293.133 344.036 292.443C345.346 291.746 346.869 291.402 348.604 291.409ZM348.638 295.273C347.873 295.273 347.191 295.455 346.592 295.818C346.001 296.182 345.532 296.67 345.183 297.284C344.842 297.898 344.676 298.583 344.683 299.341C344.683 300.106 344.85 300.795 345.183 301.409C345.524 302.015 345.986 302.5 346.57 302.864C347.161 303.22 347.835 303.398 348.592 303.398C349.161 303.398 349.687 303.292 350.172 303.08C350.657 302.867 351.077 302.576 351.433 302.205C351.797 301.826 352.081 301.39 352.286 300.898C352.49 300.405 352.592 299.883 352.592 299.33C352.585 298.595 352.411 297.92 352.07 297.307C351.729 296.693 351.259 296.201 350.661 295.83C350.062 295.458 349.388 295.273 348.638 295.273ZM369.99 315.318C368.24 315.318 366.683 315.034 365.32 314.466C363.964 313.89 362.899 313.106 362.126 312.114C361.354 311.121 360.967 309.996 360.967 308.739C360.967 307.769 361.187 306.879 361.626 306.068C362.073 305.25 362.679 304.572 363.445 304.034C364.21 303.489 365.066 303.14 366.013 302.989V302.83C364.77 302.58 363.763 301.977 362.99 301.023C362.217 300.061 361.831 298.943 361.831 297.67C361.831 296.466 362.183 295.394 362.888 294.455C363.592 293.508 364.558 292.765 365.786 292.227C367.02 291.682 368.422 291.409 369.99 291.409C371.558 291.409 372.956 291.682 374.183 292.227C375.418 292.773 376.388 293.519 377.092 294.466C377.797 295.405 378.153 296.473 378.161 297.67C378.153 298.951 377.759 300.068 376.979 301.023C376.198 301.977 375.198 302.58 373.979 302.83V302.989C374.911 303.14 375.755 303.489 376.513 304.034C377.278 304.572 377.884 305.25 378.331 306.068C378.786 306.879 379.017 307.769 379.024 308.739C379.017 309.996 378.626 311.121 377.854 312.114C377.081 313.106 376.013 313.89 374.649 314.466C373.293 315.034 371.74 315.318 369.99 315.318ZM369.99 311.705C370.77 311.705 371.452 311.564 372.036 311.284C372.619 310.996 373.073 310.602 373.399 310.102C373.732 309.595 373.899 309.011 373.899 308.352C373.899 307.678 373.729 307.083 373.388 306.568C373.047 306.045 372.585 305.636 372.001 305.341C371.418 305.038 370.748 304.886 369.99 304.886C369.24 304.886 368.57 305.038 367.979 305.341C367.388 305.636 366.922 306.045 366.581 306.568C366.248 307.083 366.081 307.678 366.081 308.352C366.081 309.011 366.244 309.595 366.57 310.102C366.895 310.602 367.354 310.996 367.945 311.284C368.536 311.564 369.217 311.705 369.99 311.705ZM369.99 301.307C370.642 301.307 371.221 301.174 371.729 300.909C372.236 300.644 372.634 300.277 372.922 299.807C373.21 299.337 373.354 298.795 373.354 298.182C373.354 297.576 373.21 297.045 372.922 296.591C372.634 296.129 372.24 295.769 371.74 295.511C371.24 295.246 370.657 295.114 369.99 295.114C369.331 295.114 368.748 295.246 368.24 295.511C367.732 295.769 367.335 296.129 367.047 296.591C366.767 297.045 366.626 297.576 366.626 298.182C366.626 298.795 366.77 299.337 367.058 299.807C367.346 300.277 367.744 300.644 368.251 300.909C368.759 301.174 369.339 301.307 369.99 301.307ZM390.669 303.364C390.669 306.189 390.29 308.788 389.533 311.159C388.783 313.53 387.631 315.727 386.078 317.75H381.453C382.044 317 382.593 316.083 383.101 315C383.608 313.917 384.052 312.735 384.43 311.455C384.809 310.167 385.105 308.833 385.317 307.455C385.529 306.076 385.635 304.712 385.635 303.364C385.635 301.568 385.449 299.758 385.078 297.932C384.714 296.098 384.214 294.402 383.578 292.841C382.949 291.273 382.241 289.989 381.453 288.989H386.078C387.631 291.011 388.783 293.208 389.533 295.58C390.29 297.951 390.669 300.545 390.669 303.364Z"
        fill="#4043BF" />
    <path d="M8 20C8 11.1634 15.1634 4 24 4H532C540.837 4 548 11.1634 548 20V103H8V20Z"
        fill="#4043BF" />
    <path
        d="M184.763 67H179.7L188.918 40.8182H194.773L204.003 67H198.941L191.948 46.1875H191.743L184.763 67ZM184.929 56.7344H198.736V60.544H184.929V56.7344ZM228.967 40.8182V67H224.748L212.412 49.1662H212.194V67H207.452V40.8182H211.696L224.02 58.6648H224.25V40.8182H228.967ZM255.651 40.8182V67H251.432L239.095 49.1662H238.878V67H234.135V40.8182H238.379L250.703 58.6648H250.933V40.8182H255.651ZM277.323 40.8182H282.066V57.9233C282.066 59.7983 281.623 61.4474 280.736 62.8707C279.858 64.294 278.623 65.4062 277.029 66.2074C275.435 67 273.573 67.3963 271.442 67.3963C269.303 67.3963 267.437 67 265.843 66.2074C264.249 65.4062 263.013 64.294 262.135 62.8707C261.258 61.4474 260.819 59.7983 260.819 57.9233V40.8182H265.562V57.527C265.562 58.6179 265.8 59.5895 266.278 60.4418C266.763 61.294 267.445 61.9631 268.323 62.4489C269.201 62.9261 270.241 63.1648 271.442 63.1648C272.644 63.1648 273.684 62.9261 274.562 62.4489C275.448 61.9631 276.13 61.294 276.607 60.4418C277.084 59.5895 277.323 58.6179 277.323 57.527V40.8182ZM290.583 67H285.521L294.738 40.8182H300.593L309.823 67H304.761L297.768 46.1875H297.563L290.583 67ZM290.749 56.7344H304.556V60.544H290.749V56.7344ZM313.272 67V40.8182H318.015V63.0241H329.546V67H313.272ZM333.662 67V40.8182H338.405V63.0241H349.937V67H333.662ZM349.627 40.8182H354.983L361.388 52.4006H361.644L368.048 40.8182H373.405L363.881 57.233V67H359.151V57.233L349.627 40.8182Z"
        fill="white" />
    <defs>
        <filter id="filter0_d_27_18" x="0" y="0" width="566" height="391"
            filterUnits="userSpaceOnUse"
            color-interpolation-filters="sRGB">
            <feFlood flood-opacity="0" result="BackgroundImageFix" />
            <feColorMatrix in="SourceAlpha" type="matrix"
                values="0 0 0 0 0 0 0 0 0 0 0 0 0 0 0 0 0 0 127 0" result="hardAlpha" />
            <feOffset dx="5" dy="9" />
            <feGaussianBlur stdDeviation="6.5" />
            <feComposite in2="hardAlpha" operator="out" />
            <feColorMatrix type="matrix"
                values="0 0 0 0 0.126122 0 0 0 0 0.122743 0 0 0 0 0.291667 0 0 0 0.1 0" />
            <feBlend mode="normal" in2="BackgroundImageFix" result="effect1_dropShadow_27_18" />
            <feBlend mode="normal" in="SourceGraphic" in2="effect1_dropShadow_27_18" result="shape" />
        </filter>
        <linearGradient id="paint0_linear_27_18" x1="329.026" y1="243" x2="237.58" y2="34.6839"
            gradientUnits="userSpaceOnUse">
            <stop stop-color="#4043BF" />
            <stop offset="1" stop-color="#98ECE7" />
        </linearGradient>
    </defs>
</svg>