<svg xmlns="http://www.w3.org/2000/svg" width="483" height="483" viewBox="0 0 483 483" fill="none">
<path d="M58.9717 399.046C60.3383 400.617 61.7278 402.098 63.1172 403.692L284.722 3.99912C282.649 3.58918 280.599 3.27035 278.572 2.90596L58.9717 399.046ZM71.8639 412.734C73.2988 414.146 74.7794 415.58 76.2372 416.97L302.921 8.07575C300.94 7.55193 298.981 7.05091 297.022 6.59542L71.8639 412.734ZM99.7894 436.282C101.384 437.421 103.001 438.605 104.641 439.721L337.247 20.0779C335.471 19.3036 333.649 18.5748 331.826 17.7777L99.8122 436.282L99.7894 436.282ZM46.8539 383.855C48.1522 385.609 49.405 387.317 50.7261 389.002L265.725 1.24339C263.584 1.03842 261.466 0.856236 259.279 0.719589L46.8767 383.878L46.8539 383.855ZM114.732 446.235C116.44 447.305 118.125 448.307 119.811 449.309L353.465 27.9124C351.711 26.9786 349.957 26.0904 348.181 25.1794L114.754 446.258L114.732 446.235ZM85.485 425.123C87.0111 426.398 88.5372 427.651 90.1089 428.926L320.437 13.4505C318.547 12.8128 316.679 12.198 314.766 11.583L85.5077 425.146L85.485 425.123ZM35.6245 367.162C36.8089 369.052 37.9933 370.942 39.2006 372.81L245.863 0.0591443C243.654 -0.00917907 241.421 -0.0091886 239.166 0.0135861L35.6472 367.184L35.6245 367.162ZM2.66505 204.757C1.86783 209.858 1.2756 215.051 0.842825 220.22L96.0538 48.3867C91.9538 51.5068 87.8994 54.7635 83.9816 58.157L2.68782 204.779L2.66505 204.757ZM14.4867 158.547L50.9994 92.6376C43.3917 102.431 36.4217 112.998 30.2033 124.203C23.985 135.408 18.7689 146.886 14.4867 158.57L14.4867 158.547ZM6.17638e-05 246.48C0.0911731 250.26 0.25062 253.927 0.501176 257.662L127.692 28.254C124.389 30.0304 121.132 31.8751 117.92 33.7654L6.17638e-05 246.48ZM8.63282 304.896C9.36171 307.561 10.1362 310.248 10.9562 312.89L180.013 7.87079C177.37 8.5768 174.705 9.32836 172.063 10.1482L8.65558 304.896L8.63282 304.896ZM2.87005 278.296C3.37116 281.393 3.94061 284.445 4.51005 287.474L155.094 15.8647C152.201 16.9806 149.308 18.1194 146.438 19.3492L2.87005 278.296ZM16.2861 328.126C17.1517 330.449 18.1311 332.795 19.0878 335.118L203.246 3.0426C200.763 3.407 198.28 3.86249 195.82 4.36353L16.3089 328.126L16.2861 328.126ZM25.3745 348.669C26.4223 350.764 27.4928 352.928 28.6089 355L225.113 0.560188C222.766 0.674061 220.42 0.87901 218.051 1.10676L25.3972 348.669L25.3745 348.669ZM163.544 469.214C165.435 469.875 167.325 470.467 169.239 471.082L398.11 58.2252C396.583 56.9499 395.057 55.6517 393.554 54.3763L163.544 469.214ZM329.89 465.001C332.829 463.817 335.744 462.61 338.637 461.312L479.608 207.08C479.176 203.937 478.629 200.771 478.059 197.696L329.89 465.001ZM281.374 478.575C283.879 478.142 286.385 477.664 288.867 477.185L466.671 156.429C465.805 154.106 464.871 151.715 463.914 149.392L281.374 478.575ZM304.744 473.359C307.409 472.653 310.096 471.856 312.739 471.036L474.164 179.955C473.458 177.268 472.661 174.535 471.864 171.893L304.721 473.359L304.744 473.359ZM357.679 451.906C361.027 450.038 364.353 448.148 367.587 446.098L482.023 239.67C482.023 235.844 481.886 231.972 481.681 228.169L357.656 451.906L357.679 451.906ZM130.403 455.094C132.157 455.982 133.933 456.916 135.664 457.736L369 36.84C367.314 35.7696 365.651 34.7903 363.943 33.7882L130.38 455.094L130.403 455.094ZM390.023 430.475C394.351 427.081 398.565 423.46 402.665 419.816L478.31 283.306C479.267 277.886 480.064 272.442 480.656 266.999L390.023 430.475ZM460.953 339.536L441.137 375.292C444.872 369.667 448.448 363.859 451.797 357.824C455.122 351.789 458.175 345.708 460.953 339.559L460.953 339.536ZM181.129 474.498C183.088 474.976 185.092 475.477 187.028 475.91L411.662 70.774C410.25 69.362 408.792 67.95 407.312 66.5607L181.129 474.498ZM199.442 478.415C201.515 478.78 203.542 479.098 205.615 479.417L424.441 84.6665C423.12 83.0722 421.73 81.5008 420.386 79.9749L199.442 478.415ZM146.62 462.746C148.443 463.498 150.288 464.272 152.133 465.001L383.896 46.9291C382.302 45.7448 380.685 44.6061 379.067 43.4901L146.62 462.769L146.62 462.746ZM259.37 481.285C261.739 481.103 264.108 480.898 266.431 480.647L457.719 135.568C456.694 133.472 455.646 131.331 454.53 129.236L259.37 481.285ZM238.438 482.014C240.693 482.059 242.948 482.014 245.225 482.014L447.583 116.892C446.421 114.957 445.282 113.021 444.052 111.153L238.438 482.014ZM218.53 480.966C220.671 481.194 222.812 481.376 224.976 481.513L436.467 99.9709C435.215 98.2401 433.916 96.532 432.618 94.7784L218.53 480.943L218.53 480.966Z" fill="url(#paint0_linear_30_20)"/>
<defs>
<linearGradient id="paint0_linear_30_20" x1="7.9443" y1="308.44" x2="471.219" y2="175.579" gradientUnits="userSpaceOnUse">
<stop stop-color="#B8E1D6"/>
<stop offset="1" stop-color="#F4FFFF"/>
</linearGradient>
</defs>
</svg>