<svg width="369" height="483" viewBox="0 0 369 483" fill="none" xmlns="http://www.w3.org/2000/svg">
<path d="M477.677 195.377C477.28 193.333 476.817 191.357 476.41 189.281L84.6486 424.623C86.2387 426.014 87.8546 427.315 89.428 428.645L477.677 195.377ZM473.356 177.078C472.82 175.137 472.255 173.154 471.687 171.222L70.9257 411.993C72.38 413.437 73.8259 414.851 75.2946 416.225L473.356 177.078ZM460.946 142.721C460.135 140.938 459.327 139.103 458.464 137.317L47.1996 384.436C48.351 385.994 49.5647 387.537 50.7443 389.138L460.927 142.71L460.946 142.721ZM480.576 214.592C480.329 212.424 480.098 210.318 479.797 208.198L99.7223 436.508C101.474 437.756 103.217 438.973 105.043 440.184L480.568 214.561L480.576 214.592ZM452.982 126.631C452.038 124.85 451.079 123.139 450.121 121.428L37.0718 369.542C38.1238 371.227 39.1986 372.874 40.2818 374.551L452.974 126.6L452.982 126.631ZM467.755 159.538C467.071 157.67 466.375 155.822 465.652 153.932L58.4437 398.58C59.7621 400.078 61.0722 401.544 62.4218 403.033L467.746 159.507L467.755 159.538ZM481.955 234.664C481.874 232.434 481.793 230.205 481.682 227.984L116.331 447.465C118.211 448.628 120.144 449.745 122.108 450.852L481.946 234.633L481.955 234.664ZM429.296 391.79C432.537 387.771 435.646 383.57 438.606 379.309L270.234 480.516C275.344 479.864 280.484 479.071 285.574 478.091L429.287 391.759L429.296 391.79ZM395.953 425.898L331.377 464.721C342.862 460.044 354.182 454.377 365.17 447.783C376.158 441.188 386.414 433.855 395.964 425.878L395.953 425.898ZM452.465 356.99C454.276 353.67 455.972 350.415 457.622 347.055L232.768 482.133C236.516 482.246 240.259 482.277 243.986 482.245L452.465 356.99ZM474.197 302.083C474.898 299.411 475.571 296.696 476.182 293.999L177.265 473.625C179.907 474.334 182.59 475.016 185.288 475.627L474.178 302.072L474.197 302.083ZM465.888 328.001C467.002 325.068 468.035 322.141 469.056 319.233L202.843 479.161C205.906 479.641 208.98 480.101 212.081 480.471L465.888 328.001ZM479.184 278.139C479.596 275.694 479.921 273.173 480.254 270.683L154.731 466.189C157.063 467.115 159.441 467.962 161.822 468.758L479.165 278.127L479.184 278.139ZM481.585 255.804C481.725 253.466 481.88 251.057 481.949 248.704L134.552 457.406C136.641 458.48 138.775 459.476 140.941 460.463L481.565 255.793L481.585 255.804ZM422.199 82.3236C420.892 80.8064 419.551 79.3483 418.201 77.8591L13.565 320.968C14.249 322.835 14.9216 324.723 15.5858 326.579L422.199 82.3236ZM276.033 2.79948C272.896 2.35593 269.767 1.94349 266.613 1.62133L17.4122 151.307C16.2155 154.245 15.1061 157.26 14.062 160.207L276.033 2.79948ZM324.836 15.3027C322.45 14.4246 320.041 13.5861 317.652 12.7589L3.29131 201.641C2.8794 204.085 2.49252 206.623 2.15952 209.113L324.836 15.3027ZM301.989 8.13434C299.328 7.41327 296.602 6.75969 293.904 6.14862L8.56447 177.519C7.83229 180.2 7.15623 182.965 6.52572 185.652L302.009 8.14572L301.989 8.13434ZM245.419 0.245957C241.586 0.1891 237.76 0.163362 233.934 0.321244L31.6164 121.876C29.7033 125.189 27.8858 128.61 26.1617 132.007L245.439 0.257344L245.419 0.245957ZM443.84 111.123C442.766 109.477 441.694 107.78 440.605 106.204L28.0824 354.043C29.0069 355.813 29.9573 357.492 30.9357 359.214L443.86 111.134L443.84 111.123ZM206.693 2.63339C201.248 3.40828 195.788 4.43734 190.415 5.54307L56.6497 85.9422C53.1111 90.158 49.6991 94.4732 46.4646 98.891L206.693 2.63339ZM99.7962 45.9236L134.836 24.8663C128.788 27.8702 122.787 31.1116 116.87 34.6641C110.972 38.228 105.289 41.9681 99.8076 45.9039L99.7962 45.9236ZM409.612 68.9556C408.155 67.562 406.67 66.1258 405.209 64.783L8.10238 303.324C8.61939 305.253 9.17587 307.205 9.76344 309.148L409.612 68.9556ZM395.711 56.4065C394.098 55.0546 392.502 53.7648 390.866 52.4523L3.98228 284.904C4.32927 286.945 4.74684 289 5.14774 290.994L395.711 56.4065ZM433.622 96.387C432.419 94.825 431.209 93.2319 429.975 91.6783L20.2261 337.857C21.0148 339.68 21.8459 341.475 22.6885 343.25L433.633 96.3672L433.622 96.387ZM345.247 23.9573C343.104 22.9306 340.95 21.9237 338.813 20.979L0.61296 224.183C0.453013 226.51 0.290009 228.888 0.208951 231.26L345.247 23.9573ZM363.739 33.7925C361.809 32.6256 359.833 31.5375 357.861 30.3986L0.0535075 245.424C0.0916297 247.681 0.110026 249.927 0.241472 252.16L363.739 33.7925ZM380.456 44.6536C378.716 43.3859 376.952 42.1575 375.147 40.9572L1.21913 265.636C1.43863 267.762 1.70897 269.89 1.95654 272.058L380.445 44.6734L380.456 44.6536Z" fill="url(#paint0_linear_399_2630)"/>
<defs>
<linearGradient id="paint0_linear_399_2630" x1="476.565" y1="299.358" x2="8.92768" y2="182.782" gradientUnits="userSpaceOnUse">
<stop stop-color="#B8E1D6"/>
<stop offset="1" stop-color="#F4FFFF"/>
</linearGradient>
</defs>
</svg>
