<svg xmlns="http://www.w3.org/2000/svg" width="155" height="155" viewBox="0 0 155 155" fill="none">
    <path
        d="M105.682 149.696L99.3122 151.887L94.2125 137.02L100.562 134.829L105.682 149.696ZM81.5552 139.17L74.817 139.273L75.0628 154.98L81.801 154.877L81.5552 139.17ZM51.0386 150.372L57.4696 152.379L62.1393 137.389L55.7083 135.382L51.0386 150.392V150.372ZM38.75 125.716L29.6564 138.535L35.1454 142.426L44.2594 129.607L38.7705 125.716H38.75ZM25.6627 111.279L13.0259 120.617L17.0197 126.044L29.6564 116.706L25.6627 111.299V111.279ZM19.8256 99.8725L17.716 93.4833L2.78541 98.4186L4.91543 104.808L19.8461 99.8725H19.8256ZM15.7089 74.0904L0 74.1313V80.8687L15.7499 80.8277V74.0699L15.7089 74.0904ZM19.8051 55.0251L4.85399 50.1718L2.76493 56.5815L17.716 61.4348L19.8051 55.0251ZM29.6564 38.2124L16.9582 28.9358L12.9849 34.383L25.6831 43.6392L29.6564 38.192V38.2124ZM44.2594 25.3111L35.0839 12.5532L29.6155 16.485L38.791 29.2225L44.2594 25.3111ZM57.4696 2.55978L51.0591 4.60761L55.8107 19.5772L62.2212 17.5499L57.4696 2.58026V2.55978ZM81.801 0.0614348L75.0628 0L74.9194 15.7068L81.6576 15.7683L81.801 0.0409565V0.0614348ZM105.702 5.24244L99.3122 3.1127L94.2739 18.0004L100.664 20.1711L105.702 5.26291V5.24244ZM117.376 30.2054L126.798 17.6318L121.411 13.5976L111.99 26.1917L117.376 30.2259V30.2054ZM130.116 44.9703L142.998 35.9394L139.127 30.4102L126.245 39.4411L130.116 44.9703ZM137.632 62.9502L152.686 58.3835L150.719 51.9329L135.686 56.52L137.653 62.9502H137.632ZM139.168 82.4046L154.877 82.7322L155.02 75.9949L139.312 75.6672L139.168 82.4046ZM134.58 101.347L149.409 106.548L151.641 100.2L136.813 94.9987L134.58 101.347ZM140.889 122.153L128.416 112.59L124.32 117.934L136.792 127.498L140.889 122.153ZM123.828 139.662L114.939 126.679L109.389 130.467L118.257 143.45L123.828 139.641V139.662Z"
        fill="url(#paint0_linear_977_4137)" />
    <defs>
        <linearGradient id="paint0_linear_977_4137" x1="149.759" y1="52.5856" x2="3.16864"
            y2="103.067" gradientUnits="userSpaceOnUse">
            <stop stop-color="#4043BF" />
            <stop offset="1" stop-color="#7E92FF" />
        </linearGradient>
    </defs>
</svg>