<svg width="305" height="482" viewBox="0 0 305 482" fill="none" xmlns="http://www.w3.org/2000/svg">
<path d="M-118.051 399.033C-116.684 400.604 -115.295 402.084 -113.906 403.679L107.699 3.98567C105.626 3.57573 103.576 3.25688 101.549 2.8925L-118.051 399.033ZM-105.159 412.72C-103.724 414.132 -102.243 415.567 -100.786 416.956L125.899 8.0623C123.917 7.53847 121.958 7.03746 119.999 6.58195L-105.159 412.72ZM-77.2334 436.269C-75.639 437.408 -74.0218 438.592 -72.3817 439.708L160.225 20.0645C158.448 19.2901 156.626 18.5614 154.804 17.7643L-77.2107 436.269L-77.2334 436.269ZM-130.169 383.842C-128.871 385.596 -127.618 387.304 -126.297 388.989L88.7025 1.22993C86.5614 1.02494 84.4431 0.842785 82.2564 0.706127L-130.146 383.865L-130.169 383.842ZM-62.2912 446.221C-60.5829 447.292 -58.8973 448.294 -57.2118 449.296L176.442 27.8989C174.689 26.9652 172.935 26.077 171.158 25.166L-62.2685 446.244L-62.2912 446.221ZM-91.5378 425.109C-90.0117 426.385 -88.4856 427.637 -86.914 428.913L143.415 13.4371C141.524 12.7994 139.656 12.1845 137.743 11.5696L-91.5151 425.132L-91.5378 425.109ZM-141.398 367.148C-140.214 369.038 -139.029 370.929 -137.822 372.796L68.8403 0.0456642C66.6309 -0.0226344 64.3987 -0.0226651 62.1437 0.000100839L-141.376 367.171L-141.398 367.148ZM-174.358 204.743C-175.155 209.845 -175.747 215.037 -176.18 220.207L-80.9689 48.3732C-85.0689 51.4933 -89.1234 54.7501 -93.0412 58.1435L-174.335 204.766L-174.358 204.743ZM-162.536 158.534L-126.023 92.6241C-133.631 102.417 -140.601 112.984 -146.819 124.19C-153.038 135.395 -158.254 146.873 -162.536 158.556L-162.536 158.534ZM-177.023 246.466C-176.932 250.247 -176.772 253.913 -176.522 257.648L-49.3306 28.2405C-52.6334 30.0169 -55.8906 31.8616 -59.1023 33.7519L-177.023 246.466ZM-168.39 304.883C-167.661 307.547 -166.887 310.235 -166.067 312.876L2.98985 7.8573C0.347637 8.56333 -2.31737 9.31488 -4.95958 10.1348L-168.367 304.883L-168.39 304.883ZM-174.153 278.282C-173.652 281.379 -173.082 284.431 -172.513 287.46L-21.929 15.8512C-24.8218 16.9671 -27.7146 18.1059 -30.5846 19.3357L-174.153 278.282ZM-160.737 328.113C-159.871 330.436 -158.892 332.781 -157.935 335.104L26.2232 3.02912C23.7404 3.39353 21.2576 3.849 18.7976 4.35004L-160.714 328.113L-160.737 328.113ZM-151.648 348.655C-150.601 350.751 -149.53 352.914 -148.414 354.987L48.0898 0.54673C45.7437 0.660591 43.3976 0.865547 41.0287 1.09327L-151.626 348.655L-151.648 348.655ZM-13.4785 469.201C-11.588 469.861 -9.69742 470.453 -7.78409 471.068L221.087 58.2118C219.561 56.9364 218.035 55.6383 216.531 54.3629L-13.4785 469.201ZM152.867 464.988C155.806 463.803 158.721 462.596 161.614 461.298L302.586 207.066C302.153 203.923 301.606 200.758 301.037 197.683L152.867 464.988ZM104.351 478.561C106.856 478.128 109.362 477.65 111.845 477.172L289.648 156.416C288.782 154.093 287.848 151.701 286.892 149.378L104.351 478.561ZM127.721 473.346C130.386 472.64 133.074 471.843 135.716 471.023L297.142 179.942C296.436 177.254 295.638 174.521 294.841 171.879L127.698 473.346L127.721 473.346ZM180.656 451.892C184.005 450.025 187.33 448.134 190.565 446.085L305 239.656C305 235.83 304.863 231.959 304.658 228.155L180.633 451.892L180.656 451.892ZM-46.6201 455.081C-44.8662 455.969 -43.0896 456.903 -41.3585 457.722L191.977 36.8265C190.291 35.7561 188.629 34.7768 186.92 33.7747L-46.6429 455.081L-46.6201 455.081ZM213.001 430.461C217.328 427.068 221.542 423.447 225.642 419.803L301.287 283.292C302.244 277.872 303.041 272.429 303.633 266.986L213.001 430.461ZM283.931 339.523L264.114 375.279C267.849 369.653 271.426 363.846 274.774 357.811C278.099 351.775 281.152 345.695 283.931 339.545L283.931 339.523ZM4.1059 474.485C6.06479 474.963 8.06924 475.464 10.0054 475.897L234.64 70.7606C233.227 69.3485 231.77 67.9365 230.289 66.5473L4.1059 474.485ZM22.4192 478.402C24.492 478.766 26.5192 479.085 28.592 479.404L247.418 84.653C246.097 83.0588 244.707 81.4874 243.363 79.9615L22.4192 478.402ZM-30.4024 462.733C-28.5802 463.484 -26.7352 464.259 -24.8902 464.988L206.873 46.9157C205.279 45.7314 203.662 44.5926 202.045 43.4767L-30.4024 462.756L-30.4024 462.733ZM82.3475 481.271C84.7164 481.089 87.0853 480.884 89.4086 480.634L280.696 135.554C279.671 133.459 278.623 131.318 277.507 129.223L82.3475 481.271ZM61.4147 482C63.6697 482.046 65.9247 482 68.2025 482L270.56 116.879C269.398 114.943 268.26 113.007 267.03 111.14L61.4147 482ZM41.507 480.952C43.6481 481.18 45.7892 481.362 47.9531 481.499L259.445 99.9575C258.192 98.2266 256.893 96.5186 255.595 94.7649L41.507 480.93L41.507 480.952Z" fill="url(#paint0_linear_399_2628)"/>
<defs>
<linearGradient id="paint0_linear_399_2628" x1="-169.078" y1="308.426" x2="294.196" y2="175.566" gradientUnits="userSpaceOnUse">
<stop stop-color="#B8E1D6"/>
<stop offset="1" stop-color="#F4FFFF"/>
</linearGradient>
</defs>
</svg>
