<svg xmlns="http://www.w3.org/2000/svg" width="564" height="391" viewBox="0 0 564 391" fill="none">
    <g filter="url(#filter0_d_977_4094)">
        <rect x="8" y="4" width="538" height="365" rx="8" fill="white" />
    </g>
    <path
        d="M171.058 228.727V141.455H176.649V228.727H171.058ZM187.183 169.375C186.864 166.398 185.524 164.08 183.16 162.42C180.819 160.761 177.774 159.932 174.024 159.932C171.387 159.932 169.126 160.33 167.239 161.125C165.353 161.92 163.91 163 162.91 164.364C161.91 165.727 161.399 167.284 161.376 169.034C161.376 170.489 161.705 171.75 162.364 172.818C163.046 173.886 163.967 174.795 165.126 175.545C166.285 176.273 167.569 176.886 168.978 177.386C170.387 177.886 171.808 178.307 173.239 178.648L179.785 180.284C182.421 180.898 184.955 181.727 187.387 182.773C189.842 183.818 192.035 185.136 193.967 186.727C195.921 188.318 197.467 190.239 198.603 192.489C199.739 194.739 200.308 197.375 200.308 200.398C200.308 204.489 199.262 208.091 197.171 211.205C195.08 214.295 192.058 216.716 188.103 218.466C184.171 220.193 179.41 221.057 173.819 221.057C168.387 221.057 163.671 220.216 159.671 218.534C155.694 216.852 152.58 214.398 150.33 211.17C148.103 207.943 146.899 204.011 146.717 199.375H159.16C159.342 201.807 160.092 203.83 161.41 205.443C162.728 207.057 164.444 208.261 166.558 209.057C168.694 209.852 171.08 210.25 173.717 210.25C176.467 210.25 178.876 209.841 180.944 209.023C183.035 208.182 184.671 207.023 185.853 205.545C187.035 204.045 187.637 202.295 187.66 200.295C187.637 198.477 187.103 196.977 186.058 195.795C185.012 194.591 183.546 193.591 181.66 192.795C179.796 191.977 177.614 191.25 175.114 190.614L167.171 188.568C161.421 187.091 156.876 184.852 153.535 181.852C150.217 178.83 148.558 174.818 148.558 169.818C148.558 165.705 149.671 162.102 151.899 159.011C154.149 155.92 157.205 153.523 161.069 151.818C164.933 150.091 169.308 149.227 174.194 149.227C179.149 149.227 183.489 150.091 187.217 151.818C190.967 153.523 193.91 155.898 196.046 158.943C198.183 161.966 199.285 165.443 199.353 169.375H187.183ZM223.194 220V210.864L247.433 187.102C249.751 184.761 251.683 182.682 253.228 180.864C254.773 179.045 255.933 177.284 256.705 175.58C257.478 173.875 257.864 172.057 257.864 170.125C257.864 167.92 257.364 166.034 256.364 164.466C255.364 162.875 253.989 161.648 252.239 160.784C250.489 159.92 248.501 159.489 246.273 159.489C243.978 159.489 241.967 159.966 240.239 160.92C238.512 161.852 237.171 163.182 236.217 164.909C235.285 166.636 234.819 168.693 234.819 171.08H222.785C222.785 166.648 223.796 162.795 225.819 159.523C227.842 156.25 230.626 153.716 234.171 151.92C237.739 150.125 241.83 149.227 246.444 149.227C251.126 149.227 255.239 150.102 258.785 151.852C262.33 153.602 265.08 156 267.035 159.045C269.012 162.091 270.001 165.568 270.001 169.477C270.001 172.091 269.501 174.659 268.501 177.182C267.501 179.705 265.739 182.5 263.217 185.568C260.717 188.636 257.205 192.352 252.683 196.716L240.648 208.955V209.432H271.058V220H223.194ZM284.798 220.75C282.729 220.75 280.957 220.023 279.479 218.568C278.002 217.114 277.275 215.341 277.298 213.25C277.275 211.205 278.002 209.455 279.479 208C280.957 206.545 282.729 205.818 284.798 205.818C286.798 205.818 288.536 206.545 290.013 208C291.513 209.455 292.275 211.205 292.298 213.25C292.275 214.636 291.911 215.898 291.207 217.034C290.525 218.17 289.616 219.08 288.479 219.761C287.366 220.42 286.138 220.75 284.798 220.75ZM322.35 149.227C325.691 149.25 328.941 149.841 332.1 151C335.282 152.136 338.145 154 340.691 156.591C343.236 159.159 345.259 162.602 346.759 166.92C348.259 171.239 349.009 176.58 349.009 182.943C349.032 188.943 348.396 194.307 347.1 199.034C345.827 203.739 343.998 207.716 341.611 210.966C339.225 214.216 336.35 216.693 332.986 218.398C329.623 220.102 325.839 220.955 321.634 220.955C317.225 220.955 313.316 220.091 309.907 218.364C306.52 216.636 303.782 214.273 301.691 211.273C299.6 208.273 298.316 204.841 297.839 200.977H310.282C310.918 203.75 312.214 205.955 314.168 207.591C316.145 209.205 318.634 210.011 321.634 210.011C326.475 210.011 330.202 207.909 332.816 203.705C335.43 199.5 336.736 193.659 336.736 186.182H336.259C335.145 188.182 333.702 189.909 331.93 191.364C330.157 192.795 328.145 193.898 325.895 194.67C323.668 195.443 321.305 195.83 318.805 195.83C314.714 195.83 311.032 194.852 307.759 192.898C304.509 190.943 301.93 188.261 300.02 184.852C298.134 181.443 297.18 177.545 297.157 173.159C297.157 168.614 298.202 164.534 300.293 160.92C302.407 157.284 305.35 154.42 309.123 152.33C312.895 150.216 317.305 149.182 322.35 149.227ZM322.384 159.455C319.93 159.455 317.714 160.057 315.736 161.261C313.782 162.443 312.236 164.057 311.1 166.102C309.986 168.125 309.43 170.386 309.43 172.886C309.452 175.364 310.009 177.614 311.1 179.636C312.214 181.659 313.725 183.261 315.634 184.443C317.566 185.625 319.77 186.216 322.248 186.216C324.089 186.216 325.805 185.864 327.395 185.159C328.986 184.455 330.373 183.477 331.555 182.227C332.759 180.955 333.691 179.511 334.35 177.898C335.032 176.284 335.361 174.58 335.339 172.784C335.339 170.398 334.77 168.193 333.634 166.17C332.52 164.148 330.986 162.523 329.032 161.295C327.1 160.068 324.884 159.455 322.384 159.455ZM378.84 149.227C382.181 149.25 385.431 149.841 388.59 151C391.772 152.136 394.635 154 397.181 156.591C399.726 159.159 401.749 162.602 403.249 166.92C404.749 171.239 405.499 176.58 405.499 182.943C405.522 188.943 404.885 194.307 403.59 199.034C402.317 203.739 400.488 207.716 398.101 210.966C395.715 214.216 392.84 216.693 389.476 218.398C386.113 220.102 382.329 220.955 378.124 220.955C373.715 220.955 369.806 220.091 366.397 218.364C363.01 216.636 360.272 214.273 358.181 211.273C356.09 208.273 354.806 204.841 354.329 200.977H366.772C367.408 203.75 368.704 205.955 370.658 207.591C372.635 209.205 375.124 210.011 378.124 210.011C382.965 210.011 386.692 207.909 389.306 203.705C391.92 199.5 393.226 193.659 393.226 186.182H392.749C391.635 188.182 390.192 189.909 388.42 191.364C386.647 192.795 384.635 193.898 382.385 194.67C380.158 195.443 377.795 195.83 375.295 195.83C371.204 195.83 367.522 194.852 364.249 192.898C360.999 190.943 358.42 188.261 356.51 184.852C354.624 181.443 353.67 177.545 353.647 173.159C353.647 168.614 354.692 164.534 356.783 160.92C358.897 157.284 361.84 154.42 365.613 152.33C369.385 150.216 373.795 149.182 378.84 149.227ZM378.874 159.455C376.42 159.455 374.204 160.057 372.226 161.261C370.272 162.443 368.726 164.057 367.59 166.102C366.476 168.125 365.92 170.386 365.92 172.886C365.942 175.364 366.499 177.614 367.59 179.636C368.704 181.659 370.215 183.261 372.124 184.443C374.056 185.625 376.26 186.216 378.738 186.216C380.579 186.216 382.295 185.864 383.885 185.159C385.476 184.455 386.863 183.477 388.045 182.227C389.249 180.955 390.181 179.511 390.84 177.898C391.522 176.284 391.851 174.58 391.829 172.784C391.829 170.398 391.26 168.193 390.124 166.17C389.01 164.148 387.476 162.523 385.522 161.295C383.59 160.068 381.374 159.455 378.874 159.455Z"
        fill="url(#paint0_linear_977_4094)" />
    <path
        d="M112.46 280.318C110.96 280.318 109.623 280.061 108.449 279.545C107.282 279.03 106.354 278.314 105.665 277.398C104.983 276.473 104.612 275.402 104.551 274.182H107.415C107.475 274.932 107.733 275.58 108.188 276.125C108.642 276.663 109.237 277.08 109.972 277.375C110.706 277.67 111.521 277.818 112.415 277.818C113.415 277.818 114.301 277.644 115.074 277.295C115.847 276.947 116.453 276.462 116.892 275.841C117.331 275.22 117.551 274.5 117.551 273.682C117.551 272.826 117.339 272.072 116.915 271.42C116.491 270.761 115.869 270.246 115.051 269.875C114.233 269.504 113.233 269.318 112.051 269.318H110.188V266.818H112.051C112.975 266.818 113.786 266.652 114.483 266.318C115.188 265.985 115.737 265.515 116.131 264.909C116.532 264.303 116.733 263.591 116.733 262.773C116.733 261.985 116.559 261.299 116.21 260.716C115.862 260.133 115.369 259.678 114.733 259.352C114.104 259.027 113.362 258.864 112.506 258.864C111.703 258.864 110.945 259.011 110.233 259.307C109.528 259.595 108.953 260.015 108.506 260.568C108.059 261.114 107.816 261.773 107.778 262.545H105.051C105.097 261.326 105.464 260.258 106.153 259.341C106.843 258.417 107.744 257.697 108.858 257.182C109.979 256.667 111.21 256.409 112.551 256.409C113.991 256.409 115.225 256.701 116.256 257.284C117.286 257.86 118.078 258.621 118.631 259.568C119.184 260.515 119.46 261.538 119.46 262.636C119.46 263.947 119.116 265.064 118.426 265.989C117.744 266.913 116.816 267.553 115.642 267.909V268.091C117.112 268.333 118.259 268.958 119.085 269.966C119.911 270.966 120.324 272.205 120.324 273.682C120.324 274.947 119.979 276.083 119.29 277.091C118.608 278.091 117.676 278.879 116.494 279.455C115.313 280.03 113.968 280.318 112.46 280.318ZM132.562 280.318C130.85 280.318 129.392 279.852 128.188 278.92C126.983 277.981 126.063 276.621 125.426 274.841C124.79 273.053 124.472 270.894 124.472 268.364C124.472 265.848 124.79 263.701 125.426 261.92C126.07 260.133 126.994 258.769 128.199 257.83C129.411 256.883 130.866 256.409 132.562 256.409C134.259 256.409 135.71 256.883 136.915 257.83C138.127 258.769 139.051 260.133 139.688 261.92C140.331 263.701 140.653 265.848 140.653 268.364C140.653 270.894 140.335 273.053 139.699 274.841C139.062 276.621 138.142 277.981 136.938 278.92C135.733 279.852 134.275 280.318 132.562 280.318ZM132.562 277.818C134.259 277.818 135.578 277 136.517 275.364C137.456 273.727 137.926 271.394 137.926 268.364C137.926 266.348 137.71 264.633 137.278 263.216C136.854 261.799 136.241 260.72 135.438 259.977C134.642 259.235 133.684 258.864 132.562 258.864C130.881 258.864 129.566 259.693 128.619 261.352C127.672 263.004 127.199 265.341 127.199 268.364C127.199 270.379 127.411 272.091 127.835 273.5C128.259 274.909 128.869 275.981 129.665 276.716C130.468 277.451 131.434 277.818 132.562 277.818ZM160.608 280.364C159.153 280.364 157.869 279.996 156.756 279.261C155.642 278.519 154.771 277.473 154.142 276.125C153.513 274.769 153.199 273.167 153.199 271.318C153.199 269.485 153.513 267.894 154.142 266.545C154.771 265.197 155.646 264.155 156.767 263.42C157.888 262.686 159.184 262.318 160.653 262.318C161.79 262.318 162.688 262.508 163.347 262.886C164.013 263.258 164.521 263.682 164.869 264.159C165.225 264.629 165.502 265.015 165.699 265.318H165.926V256.727H168.608V280H166.017V277.318H165.699C165.502 277.636 165.222 278.038 164.858 278.523C164.494 279 163.975 279.428 163.301 279.807C162.627 280.178 161.729 280.364 160.608 280.364ZM160.972 277.955C162.047 277.955 162.956 277.674 163.699 277.114C164.441 276.545 165.006 275.761 165.392 274.761C165.778 273.754 165.972 272.591 165.972 271.273C165.972 269.97 165.782 268.83 165.403 267.852C165.025 266.867 164.464 266.102 163.722 265.557C162.979 265.004 162.063 264.727 160.972 264.727C159.835 264.727 158.888 265.019 158.131 265.602C157.381 266.178 156.816 266.962 156.438 267.955C156.066 268.939 155.881 270.045 155.881 271.273C155.881 272.515 156.07 273.644 156.449 274.659C156.835 275.667 157.403 276.47 158.153 277.068C158.911 277.659 159.85 277.955 160.972 277.955ZM179.028 280.409C177.922 280.409 176.919 280.201 176.017 279.784C175.116 279.36 174.4 278.75 173.869 277.955C173.339 277.152 173.074 276.182 173.074 275.045C173.074 274.045 173.271 273.235 173.665 272.614C174.059 271.985 174.585 271.492 175.244 271.136C175.903 270.78 176.631 270.515 177.426 270.341C178.229 270.159 179.036 270.015 179.847 269.909C180.907 269.773 181.767 269.67 182.426 269.602C183.093 269.527 183.578 269.402 183.881 269.227C184.191 269.053 184.347 268.75 184.347 268.318V268.227C184.347 267.106 184.04 266.235 183.426 265.614C182.82 264.992 181.9 264.682 180.665 264.682C179.384 264.682 178.381 264.962 177.653 265.523C176.926 266.083 176.415 266.682 176.119 267.318L173.574 266.409C174.028 265.348 174.634 264.523 175.392 263.932C176.157 263.333 176.991 262.917 177.892 262.682C178.801 262.439 179.695 262.318 180.574 262.318C181.134 262.318 181.778 262.386 182.506 262.523C183.241 262.652 183.949 262.92 184.631 263.33C185.32 263.739 185.892 264.356 186.347 265.182C186.801 266.008 187.028 267.114 187.028 268.5V280H184.347V277.636H184.21C184.028 278.015 183.725 278.42 183.301 278.852C182.877 279.284 182.313 279.652 181.608 279.955C180.903 280.258 180.044 280.409 179.028 280.409ZM179.438 278C180.498 278 181.392 277.792 182.119 277.375C182.854 276.958 183.407 276.42 183.778 275.761C184.157 275.102 184.347 274.409 184.347 273.682V271.227C184.233 271.364 183.983 271.489 183.597 271.602C183.218 271.708 182.778 271.803 182.278 271.886C181.786 271.962 181.305 272.03 180.835 272.091C180.373 272.144 179.998 272.189 179.71 272.227C179.013 272.318 178.362 272.466 177.756 272.67C177.157 272.867 176.672 273.167 176.301 273.568C175.938 273.962 175.756 274.5 175.756 275.182C175.756 276.114 176.1 276.818 176.79 277.295C177.487 277.765 178.369 278 179.438 278ZM193.026 286.545C192.571 286.545 192.166 286.508 191.81 286.432C191.454 286.364 191.207 286.295 191.071 286.227L191.753 283.864C192.404 284.03 192.98 284.091 193.48 284.045C193.98 284 194.423 283.777 194.81 283.375C195.204 282.981 195.563 282.341 195.889 281.455L196.389 280.091L189.935 262.545H192.844L197.662 276.455H197.844L202.662 262.545H205.571L198.162 282.545C197.829 283.447 197.416 284.193 196.923 284.784C196.431 285.383 195.859 285.826 195.207 286.114C194.563 286.402 193.836 286.545 193.026 286.545ZM221.474 266.455L219.065 267.136C218.914 266.735 218.69 266.345 218.395 265.966C218.107 265.58 217.713 265.261 217.213 265.011C216.713 264.761 216.073 264.636 215.293 264.636C214.224 264.636 213.334 264.883 212.622 265.375C211.918 265.86 211.565 266.477 211.565 267.227C211.565 267.894 211.808 268.42 212.293 268.807C212.777 269.193 213.535 269.515 214.565 269.773L217.156 270.409C218.717 270.788 219.88 271.367 220.645 272.148C221.41 272.92 221.793 273.917 221.793 275.136C221.793 276.136 221.505 277.03 220.929 277.818C220.361 278.606 219.565 279.227 218.543 279.682C217.52 280.136 216.33 280.364 214.974 280.364C213.194 280.364 211.721 279.977 210.554 279.205C209.387 278.432 208.649 277.303 208.338 275.818L210.884 275.182C211.126 276.121 211.584 276.826 212.259 277.295C212.94 277.765 213.83 278 214.929 278C216.179 278 217.171 277.735 217.906 277.205C218.649 276.667 219.02 276.023 219.02 275.273C219.02 274.667 218.808 274.159 218.384 273.75C217.959 273.333 217.308 273.023 216.429 272.818L213.52 272.136C211.921 271.758 210.747 271.17 209.997 270.375C209.255 269.572 208.884 268.568 208.884 267.364C208.884 266.379 209.16 265.508 209.713 264.75C210.274 263.992 211.035 263.398 211.997 262.966C212.967 262.534 214.065 262.318 215.293 262.318C217.02 262.318 218.376 262.697 219.361 263.455C220.353 264.212 221.058 265.212 221.474 266.455ZM242.602 262.545V264.818H233.193V262.545H242.602ZM236.011 280V260.136C236.011 259.136 236.246 258.303 236.716 257.636C237.186 256.97 237.795 256.47 238.545 256.136C239.295 255.803 240.087 255.636 240.92 255.636C241.58 255.636 242.117 255.689 242.534 255.795C242.951 255.902 243.261 256 243.466 256.091L242.693 258.409C242.557 258.364 242.367 258.307 242.125 258.239C241.89 258.17 241.58 258.136 241.193 258.136C240.307 258.136 239.667 258.36 239.273 258.807C238.886 259.254 238.693 259.909 238.693 260.773V280H236.011ZM246.361 280V262.545H248.952V265.182H249.134C249.452 264.318 250.027 263.617 250.861 263.08C251.694 262.542 252.634 262.273 253.679 262.273C253.876 262.273 254.122 262.277 254.418 262.284C254.713 262.292 254.937 262.303 255.088 262.318V265.045C254.997 265.023 254.789 264.989 254.463 264.943C254.145 264.89 253.808 264.864 253.452 264.864C252.603 264.864 251.846 265.042 251.179 265.398C250.52 265.746 249.997 266.231 249.611 266.852C249.232 267.466 249.043 268.167 249.043 268.955V280H246.361ZM264.827 280.364C263.251 280.364 261.868 279.989 260.679 279.239C259.497 278.489 258.573 277.439 257.906 276.091C257.247 274.742 256.918 273.167 256.918 271.364C256.918 269.545 257.247 267.958 257.906 266.602C258.573 265.246 259.497 264.193 260.679 263.443C261.868 262.693 263.251 262.318 264.827 262.318C266.402 262.318 267.781 262.693 268.963 263.443C270.152 264.193 271.077 265.246 271.736 266.602C272.402 267.958 272.736 269.545 272.736 271.364C272.736 273.167 272.402 274.742 271.736 276.091C271.077 277.439 270.152 278.489 268.963 279.239C267.781 279.989 266.402 280.364 264.827 280.364ZM264.827 277.955C266.024 277.955 267.009 277.648 267.781 277.034C268.554 276.42 269.126 275.614 269.497 274.614C269.868 273.614 270.054 272.53 270.054 271.364C270.054 270.197 269.868 269.11 269.497 268.102C269.126 267.095 268.554 266.28 267.781 265.659C267.009 265.038 266.024 264.727 264.827 264.727C263.63 264.727 262.645 265.038 261.872 265.659C261.099 266.28 260.527 267.095 260.156 268.102C259.785 269.11 259.599 270.197 259.599 271.364C259.599 272.53 259.785 273.614 260.156 274.614C260.527 275.614 261.099 276.42 261.872 277.034C262.645 277.648 263.63 277.955 264.827 277.955ZM276.83 280V262.545H279.42V265.273H279.648C280.011 264.341 280.598 263.617 281.409 263.102C282.22 262.58 283.193 262.318 284.33 262.318C285.481 262.318 286.439 262.58 287.205 263.102C287.977 263.617 288.58 264.341 289.011 265.273H289.193C289.64 264.371 290.311 263.655 291.205 263.125C292.098 262.587 293.17 262.318 294.42 262.318C295.981 262.318 297.258 262.807 298.25 263.784C299.242 264.754 299.739 266.265 299.739 268.318V280H297.057V268.318C297.057 267.03 296.705 266.11 296 265.557C295.295 265.004 294.466 264.727 293.511 264.727C292.284 264.727 291.333 265.098 290.659 265.841C289.985 266.576 289.648 267.508 289.648 268.636V280H286.92V268.045C286.92 267.053 286.598 266.254 285.955 265.648C285.311 265.034 284.481 264.727 283.466 264.727C282.769 264.727 282.117 264.913 281.511 265.284C280.913 265.655 280.428 266.17 280.057 266.83C279.693 267.481 279.511 268.235 279.511 269.091V280H276.83ZM313.642 286.545V262.545H316.233V265.318H316.551C316.748 265.015 317.021 264.629 317.369 264.159C317.725 263.682 318.233 263.258 318.892 262.886C319.559 262.508 320.46 262.318 321.597 262.318C323.066 262.318 324.362 262.686 325.483 263.42C326.604 264.155 327.479 265.197 328.108 266.545C328.737 267.894 329.051 269.485 329.051 271.318C329.051 273.167 328.737 274.769 328.108 276.125C327.479 277.473 326.608 278.519 325.494 279.261C324.381 279.996 323.097 280.364 321.642 280.364C320.521 280.364 319.623 280.178 318.949 279.807C318.275 279.428 317.756 279 317.392 278.523C317.028 278.038 316.748 277.636 316.551 277.318H316.324V286.545H313.642ZM316.278 271.273C316.278 272.591 316.472 273.754 316.858 274.761C317.244 275.761 317.809 276.545 318.551 277.114C319.294 277.674 320.203 277.955 321.278 277.955C322.4 277.955 323.335 277.659 324.085 277.068C324.843 276.47 325.411 275.667 325.79 274.659C326.176 273.644 326.369 272.515 326.369 271.273C326.369 270.045 326.18 268.939 325.801 267.955C325.43 266.962 324.866 266.178 324.108 265.602C323.358 265.019 322.415 264.727 321.278 264.727C320.188 264.727 319.271 265.004 318.528 265.557C317.786 266.102 317.225 266.867 316.847 267.852C316.468 268.83 316.278 269.97 316.278 271.273ZM344.142 272.864V262.545H346.824V280H344.142V277.045H343.96C343.551 277.932 342.915 278.686 342.051 279.307C341.188 279.92 340.097 280.227 338.778 280.227C337.688 280.227 336.718 279.989 335.869 279.511C335.021 279.027 334.354 278.299 333.869 277.33C333.384 276.352 333.142 275.121 333.142 273.636V262.545H335.824V273.455C335.824 274.727 336.18 275.742 336.892 276.5C337.612 277.258 338.528 277.636 339.642 277.636C340.309 277.636 340.987 277.466 341.676 277.125C342.373 276.784 342.956 276.261 343.426 275.557C343.903 274.852 344.142 273.955 344.142 272.864ZM351.736 280V262.545H354.327V265.182H354.509C354.827 264.318 355.402 263.617 356.236 263.08C357.069 262.542 358.009 262.273 359.054 262.273C359.251 262.273 359.497 262.277 359.793 262.284C360.088 262.292 360.312 262.303 360.463 262.318V265.045C360.372 265.023 360.164 264.989 359.838 264.943C359.52 264.89 359.183 264.864 358.827 264.864C357.978 264.864 357.221 265.042 356.554 265.398C355.895 265.746 355.372 266.231 354.986 266.852C354.607 267.466 354.418 268.167 354.418 268.955V280H351.736ZM370.202 280.364C368.565 280.364 367.156 279.977 365.974 279.205C364.793 278.432 363.884 277.367 363.247 276.011C362.611 274.655 362.293 273.106 362.293 271.364C362.293 269.591 362.618 268.027 363.27 266.67C363.929 265.307 364.846 264.242 366.02 263.477C367.202 262.705 368.58 262.318 370.156 262.318C371.384 262.318 372.49 262.545 373.474 263C374.459 263.455 375.266 264.091 375.895 264.909C376.524 265.727 376.914 266.682 377.065 267.773H374.384C374.179 266.977 373.724 266.273 373.02 265.659C372.323 265.038 371.384 264.727 370.202 264.727C369.156 264.727 368.24 265 367.452 265.545C366.671 266.083 366.062 266.845 365.622 267.83C365.19 268.807 364.974 269.955 364.974 271.273C364.974 272.621 365.187 273.795 365.611 274.795C366.043 275.795 366.649 276.572 367.429 277.125C368.217 277.678 369.141 277.955 370.202 277.955C370.899 277.955 371.531 277.833 372.099 277.591C372.668 277.348 373.149 277 373.543 276.545C373.937 276.091 374.217 275.545 374.384 274.909H377.065C376.914 275.939 376.539 276.867 375.94 277.693C375.349 278.511 374.565 279.163 373.588 279.648C372.618 280.125 371.49 280.364 370.202 280.364ZM383.668 269.5V280H380.986V256.727H383.668V265.273H383.895C384.304 264.371 384.918 263.655 385.736 263.125C386.562 262.587 387.66 262.318 389.031 262.318C390.221 262.318 391.262 262.557 392.156 263.034C393.05 263.504 393.743 264.227 394.236 265.205C394.736 266.174 394.986 267.409 394.986 268.909V280H392.304V269.091C392.304 267.705 391.944 266.633 391.224 265.875C390.512 265.11 389.524 264.727 388.259 264.727C387.38 264.727 386.592 264.913 385.895 265.284C385.205 265.655 384.66 266.197 384.259 266.909C383.865 267.621 383.668 268.485 383.668 269.5ZM405.028 280.409C403.922 280.409 402.919 280.201 402.017 279.784C401.116 279.36 400.4 278.75 399.869 277.955C399.339 277.152 399.074 276.182 399.074 275.045C399.074 274.045 399.271 273.235 399.665 272.614C400.059 271.985 400.585 271.492 401.244 271.136C401.903 270.78 402.631 270.515 403.426 270.341C404.229 270.159 405.036 270.015 405.847 269.909C406.907 269.773 407.767 269.67 408.426 269.602C409.093 269.527 409.578 269.402 409.881 269.227C410.191 269.053 410.347 268.75 410.347 268.318V268.227C410.347 267.106 410.04 266.235 409.426 265.614C408.82 264.992 407.9 264.682 406.665 264.682C405.384 264.682 404.381 264.962 403.653 265.523C402.926 266.083 402.415 266.682 402.119 267.318L399.574 266.409C400.028 265.348 400.634 264.523 401.392 263.932C402.157 263.333 402.991 262.917 403.892 262.682C404.801 262.439 405.695 262.318 406.574 262.318C407.134 262.318 407.778 262.386 408.506 262.523C409.241 262.652 409.949 262.92 410.631 263.33C411.32 263.739 411.892 264.356 412.347 265.182C412.801 266.008 413.028 267.114 413.028 268.5V280H410.347V277.636H410.21C410.028 278.015 409.725 278.42 409.301 278.852C408.877 279.284 408.313 279.652 407.608 279.955C406.903 280.258 406.044 280.409 405.028 280.409ZM405.438 278C406.498 278 407.392 277.792 408.119 277.375C408.854 276.958 409.407 276.42 409.778 275.761C410.157 275.102 410.347 274.409 410.347 273.682V271.227C410.233 271.364 409.983 271.489 409.597 271.602C409.218 271.708 408.778 271.803 408.278 271.886C407.786 271.962 407.305 272.03 406.835 272.091C406.373 272.144 405.998 272.189 405.71 272.227C405.013 272.318 404.362 272.466 403.756 272.67C403.157 272.867 402.672 273.167 402.301 273.568C401.938 273.962 401.756 274.5 401.756 275.182C401.756 276.114 402.1 276.818 402.79 277.295C403.487 277.765 404.369 278 405.438 278ZM430.287 266.455L427.878 267.136C427.726 266.735 427.503 266.345 427.207 265.966C426.92 265.58 426.526 265.261 426.026 265.011C425.526 264.761 424.885 264.636 424.105 264.636C423.037 264.636 422.147 264.883 421.435 265.375C420.73 265.86 420.378 266.477 420.378 267.227C420.378 267.894 420.62 268.42 421.105 268.807C421.59 269.193 422.348 269.515 423.378 269.773L425.969 270.409C427.529 270.788 428.692 271.367 429.457 272.148C430.223 272.92 430.605 273.917 430.605 275.136C430.605 276.136 430.317 277.03 429.741 277.818C429.173 278.606 428.378 279.227 427.355 279.682C426.332 280.136 425.143 280.364 423.787 280.364C422.007 280.364 420.533 279.977 419.366 279.205C418.2 278.432 417.461 277.303 417.151 275.818L419.696 275.182C419.938 276.121 420.397 276.826 421.071 277.295C421.753 277.765 422.643 278 423.741 278C424.991 278 425.984 277.735 426.719 277.205C427.461 276.667 427.832 276.023 427.832 275.273C427.832 274.667 427.62 274.159 427.196 273.75C426.772 273.333 426.12 273.023 425.241 272.818L422.332 272.136C420.734 271.758 419.56 271.17 418.81 270.375C418.067 269.572 417.696 268.568 417.696 267.364C417.696 266.379 417.973 265.508 418.526 264.75C419.086 263.992 419.848 263.398 420.81 262.966C421.779 262.534 422.878 262.318 424.105 262.318C425.832 262.318 427.188 262.697 428.173 263.455C429.166 264.212 429.87 265.212 430.287 266.455ZM441.96 280.364C440.278 280.364 438.828 279.992 437.608 279.25C436.396 278.5 435.46 277.455 434.801 276.114C434.15 274.765 433.824 273.197 433.824 271.409C433.824 269.621 434.15 268.045 434.801 266.682C435.46 265.311 436.377 264.242 437.551 263.477C438.733 262.705 440.112 262.318 441.688 262.318C442.597 262.318 443.494 262.47 444.381 262.773C445.267 263.076 446.074 263.568 446.801 264.25C447.528 264.924 448.108 265.818 448.54 266.932C448.972 268.045 449.188 269.417 449.188 271.045V272.182H435.733V269.864H446.46C446.46 268.879 446.263 268 445.869 267.227C445.483 266.455 444.93 265.845 444.21 265.398C443.498 264.951 442.657 264.727 441.688 264.727C440.619 264.727 439.695 264.992 438.915 265.523C438.142 266.045 437.547 266.727 437.131 267.568C436.714 268.409 436.506 269.311 436.506 270.273V271.818C436.506 273.136 436.733 274.254 437.188 275.17C437.65 276.08 438.29 276.773 439.108 277.25C439.926 277.72 440.877 277.955 441.96 277.955C442.665 277.955 443.301 277.856 443.869 277.659C444.445 277.455 444.941 277.152 445.358 276.75C445.775 276.341 446.097 275.833 446.324 275.227L448.915 275.955C448.642 276.833 448.184 277.606 447.54 278.273C446.896 278.932 446.1 279.447 445.153 279.818C444.206 280.182 443.142 280.364 441.96 280.364Z"
        fill="#4043BF" />
    <path d="M8 12C8 7.58172 11.5817 4 16 4H538C542.418 4 546 7.58172 546 12V103H8V12Z"
        fill="#4043BF" />
    <path
        d="M188.661 40.8182H194.464L202.237 59.7898H202.544L210.317 40.8182H216.121V67H211.57V49.0128H211.327L204.091 66.9233H200.69L193.455 48.9744H193.212V67H188.661V40.8182ZM244.68 53.9091C244.68 56.7301 244.152 59.1463 243.095 61.1577C242.047 63.1605 240.615 64.6946 238.8 65.7599C236.993 66.8253 234.943 67.358 232.651 67.358C230.358 67.358 228.304 66.8253 226.489 65.7599C224.682 64.6861 223.25 63.1477 222.193 61.1449C221.145 59.1335 220.621 56.7216 220.621 53.9091C220.621 51.0881 221.145 48.6761 222.193 46.6733C223.25 44.6619 224.682 43.1236 226.489 42.0582C228.304 40.9929 230.358 40.4602 232.651 40.4602C234.943 40.4602 236.993 40.9929 238.8 42.0582C240.615 43.1236 242.047 44.6619 243.095 46.6733C244.152 48.6761 244.68 51.0881 244.68 53.9091ZM239.912 53.9091C239.912 51.9233 239.601 50.2486 238.979 48.8849C238.365 47.5128 237.513 46.4773 236.422 45.7784C235.331 45.071 234.074 44.7173 232.651 44.7173C231.227 44.7173 229.97 45.071 228.879 45.7784C227.788 46.4773 226.932 47.5128 226.31 48.8849C225.696 50.2486 225.389 51.9233 225.389 53.9091C225.389 55.8949 225.696 57.5739 226.31 58.946C226.932 60.3097 227.788 61.3452 228.879 62.0526C229.97 62.7514 231.227 63.1009 232.651 63.1009C234.074 63.1009 235.331 62.7514 236.422 62.0526C237.513 61.3452 238.365 60.3097 238.979 58.946C239.601 57.5739 239.912 55.8949 239.912 53.9091ZM270.68 40.8182V67H266.461L254.125 49.1662H253.907V67H249.164V40.8182H253.409L265.733 58.6648H265.963V40.8182H270.68ZM274.697 44.794V40.8182H295.587V44.794H287.494V67H282.79V44.794H274.697ZM299.614 67V40.8182H304.357V51.902H316.489V40.8182H321.244V67H316.489V55.8778H304.357V67H299.614ZM326.403 67V40.8182H331.146V63.0241H342.677V67H326.403ZM342.367 40.8182H347.723L354.128 52.4006H354.384L360.789 40.8182H366.145L356.621 57.233V67H351.891V57.233L342.367 40.8182Z"
        fill="white" />
    <defs>
        <filter id="filter0_d_977_4094" x="0" y="0" width="564" height="391"
            filterUnits="userSpaceOnUse" color-interpolation-filters="sRGB">
            <feFlood flood-opacity="0" result="BackgroundImageFix" />
            <feColorMatrix in="SourceAlpha" type="matrix"
                values="0 0 0 0 0 0 0 0 0 0 0 0 0 0 0 0 0 0 127 0" result="hardAlpha" />
            <feOffset dx="5" dy="9" />
            <feGaussianBlur stdDeviation="6.5" />
            <feComposite in2="hardAlpha" operator="out" />
            <feColorMatrix type="matrix"
                values="0 0 0 0 0.126122 0 0 0 0 0.122743 0 0 0 0 0.291667 0 0 0 0.1 0" />
            <feBlend mode="normal" in2="BackgroundImageFix" result="effect1_dropShadow_977_4094" />
            <feBlend mode="normal" in="SourceGraphic" in2="effect1_dropShadow_977_4094"
                result="shape" />
        </filter>
        <linearGradient id="paint0_linear_977_4094" x1="344" y1="240" x2="276" y2="26"
            gradientUnits="userSpaceOnUse">
            <stop stop-color="#4043BF" />
            <stop offset="1" stop-color="#98ECE7" />
        </linearGradient>
    </defs>
</svg>