<svg xmlns="http://www.w3.org/2000/svg" width="24" height="24" viewBox="0 0 24 24" fill="none">
    <path
        d="M22.6048 0.878161L23.2439 1.51733C24.1247 2.39916 23.9914 3.96241 22.9439 5.00891L9.76294 18.1898L5.49244 19.752C4.95619 19.9492 4.43403 19.6935 4.32786 19.1832C4.29198 18.9982 4.30887 18.8067 4.37661 18.6307L5.96911 14.3234L19.1132 1.17824C20.1608 0.131745 21.724 -0.003672 22.6048 0.878161ZM9.18769 2.18899C9.32996 2.18899 9.47083 2.21702 9.60227 2.27146C9.7337 2.3259 9.85313 2.4057 9.95373 2.5063C10.0543 2.60689 10.1341 2.72632 10.1886 2.85775C10.243 2.98919 10.271 3.13006 10.271 3.27233C10.271 3.41459 10.243 3.55547 10.1886 3.6869C10.1341 3.81834 10.0543 3.93776 9.95373 4.03836C9.85313 4.13896 9.7337 4.21876 9.60227 4.2732C9.47083 4.32764 9.32996 4.35566 9.18769 4.35566H4.85436C4.27972 4.35566 3.72862 4.58393 3.3223 4.99026C2.91597 5.39659 2.68769 5.94769 2.68769 6.52233V19.5223C2.68769 20.097 2.91597 20.6481 3.3223 21.0544C3.72862 21.4607 4.27972 21.689 4.85436 21.689H17.8544C18.429 21.689 18.9801 21.4607 19.3864 21.0544C19.7928 20.6481 20.021 20.097 20.021 19.5223V15.189C20.021 14.9017 20.1352 14.6261 20.3383 14.423C20.5415 14.2198 20.817 14.1057 21.1044 14.1057C21.3917 14.1057 21.6672 14.2198 21.8704 14.423C22.0736 14.6261 22.1877 14.9017 22.1877 15.189V19.5223C22.1877 20.6716 21.7311 21.7738 20.9185 22.5865C20.1058 23.3991 19.0036 23.8557 17.8544 23.8557H4.85436C3.70509 23.8557 2.60289 23.3991 1.79023 22.5865C0.977573 21.7738 0.521027 20.6716 0.521027 19.5223V6.52233C0.521027 5.37306 0.977573 4.27086 1.79023 3.4582C2.60289 2.64554 3.70509 2.18899 4.85436 2.18899H9.18769Z"
        fill="#4441DB" />
</svg>